<svg xmlns="http://www.w3.org/2000/svg" width="252.529" height="270.147" viewBox="0 0 252.529 270.147">
  <g id="marketing2_lg" transform="translate(-675.21 -1793.851)">
    <text id="Digital_Marketing" data-name="Digital Marketing" transform="translate(824 2055.998)" fill="#3b325f" font-size="22" font-family="Poppins-Bold, Poppins" font-weight="700"><tspan x="-97.911" y="0">Digital Marketing</tspan></text>
    <g id="Group_303" data-name="Group 303" transform="translate(617.384 1909.334) rotate(-45)">
      <g id="Shape" transform="translate(99.824 0) rotate(40)" opacity="0.11" style="isolation: isolate">
        <path id="Path_15" data-name="Path 15" d="M4.85,76.1c-10.571,22.949-3.289,52.545,16.266,66.105,10.761,7.462,23.584,8.776,34.847,3.571l.03-.019q1.225-.566,2.416-1.23c7.833-3.627,34.024-12.981,70.377,3.218,5.566,2.481,9.847,3.752,13.086,4.091,32.835,12.309,66.767-9.275,75.788-48.208,7.6-32.812-4.893-68.443-30.141-85.944-5.295-3.67-10.717-7.7-16.322-9.4,0,0-72.224-38.947-154.309,52.014A43.5,43.5,0,0,0,4.85,76.1Z" transform="translate(0 0)" fill="#accaf0" stroke="rgba(0,0,0,0)" stroke-width="1"/>
      </g>
      <path id="Shape-2" data-name="Shape" stroke="#accaf0" d="M.452,98.172C-2.781,121.727,11.663,148,32.713,156.866c11.584,4.876,23.349,3.593,31.971-3.487l.022-.024q.937-.77,1.819-1.625c5.995-4.931,26.785-18.82,63.495-10.781,5.621,1.232,9.772,1.582,12.746,1.264,32.532,5.087,56.92-21.768,54.473-59.982-2.063-32.206-22.769-63.111-49.947-74.546-5.7-2.4-11.609-5.111-17.054-5.6,0,0-74.751-22.3-123.325,78.934A38.6,38.6,0,0,0,.452,98.172Z" fill="none" transform="translate(196.917 240.998) rotate(-159)" stroke-miterlimit="10" stroke-width="1" stroke-dasharray="5" opacity="0.97" style="isolation: isolate"/>
      <rect id="Rectangle_2143" data-name="Rectangle 2143" width="10.355" height="10.355" transform="matrix(-0.643, 0.766, -0.766, -0.643, 65.617, 31.516)" fill="none" stroke="#3c58a4" stroke-miterlimit="10" stroke-width="1" opacity="0.31"/>
      <ellipse id="Ellipse_72" data-name="Ellipse 72" cx="5.59" cy="5.599" rx="5.59" ry="5.599" transform="translate(89.656 218.439)" fill="none" stroke="#3c58a4" stroke-miterlimit="10" stroke-width="1" opacity="0.31"/>
    </g>
    <g id="Group_306" data-name="Group 306" transform="translate(-8870.785 -1103.346)">
      <rect id="Rectangle_2216" data-name="Rectangle 2216" width="87.627" height="65.734" rx="7.117" transform="translate(9621.734 3002.207)" fill="#fff" stroke="#4070f4" stroke-miterlimit="10" stroke-width="4.159"/>
      <rect id="Rectangle_2217" data-name="Rectangle 2217" width="105.526" height="12.209" rx="3.366" transform="translate(9612.785 3067.941)" fill="#fff" stroke="#4070f4" stroke-miterlimit="10" stroke-width="4.159"/>
      <path id="Path_581" data-name="Path 581" d="M9738.117,2978.344h-55.593a6.679,6.679,0,0,0-6.68,6.677v44.563a6.679,6.679,0,0,0,6.68,6.677h38.432v10.757l10.758-10.757h6.4a6.678,6.678,0,0,0,6.677-6.677v-44.563A6.677,6.677,0,0,0,9738.117,2978.344Z" transform="translate(7.991)" fill="#fff" stroke="#e9b640" stroke-linecap="round" stroke-miterlimit="10" stroke-width="4.1"/>
      <line id="Line_100" data-name="Line 100" x2="37.911" transform="translate(9697.399 2997.707)" fill="#fff" stroke="#4070f4" stroke-linecap="round" stroke-miterlimit="10" stroke-width="4.159"/>
      <line id="Line_101" data-name="Line 101" x2="24.39" transform="translate(9697.399 3008.577)" fill="#fff" stroke="#4070f4" stroke-linecap="round" stroke-miterlimit="10" stroke-width="4.159"/>
      <line id="Line_102" data-name="Line 102" x2="28.897" transform="translate(9697.399 3019.446)" fill="#fff" stroke="#4070f4" stroke-linecap="round" stroke-miterlimit="10" stroke-width="4.159"/>
      <path id="Path_582" data-name="Path 582" d="M9653.178,3020.118l14.448,11.5-14.448,10.569Z" transform="translate(5.118 5.294)" fill="#fff" stroke="#e9b640" stroke-linecap="round" stroke-miterlimit="10" stroke-width="4.1"/>
    </g>
  </g>
</svg>
