<svg xmlns="http://www.w3.org/2000/svg" width="270.828" height="266.822" viewBox="0 0 270.828 266.822">
  <g id="marketing3_lg" transform="translate(-998.768 -1797.176)">
    <text id="Ad_Film_Makers" data-name="Ad Film Makers" transform="translate(1141 2055.998)" fill="#3b325f" font-size="22" font-family="Poppins-Bold, Poppins" font-weight="700"><tspan x="-86.383" y="0">Ad Film Makers</tspan></text>
    <g id="Group_302" data-name="Group 302" transform="matrix(-0.998, 0.07, -0.07, -0.998, 1277, 2045.994)">
      <g id="Shape" transform="translate(99.824 0) rotate(40)" opacity="0.11" style="isolation: isolate">
        <path id="Path_15" data-name="Path 15" d="M4.85,76.1c-10.571,22.949-3.289,52.545,16.266,66.105,10.761,7.462,23.584,8.776,34.847,3.571l.03-.019q1.225-.566,2.416-1.23c7.833-3.627,34.024-12.981,70.377,3.218,5.566,2.481,9.847,3.752,13.086,4.091,32.835,12.309,66.767-9.275,75.788-48.208,7.6-32.812-4.893-68.443-30.141-85.944-5.295-3.67-10.717-7.7-16.322-9.4,0,0-72.224-38.947-154.309,52.014A43.5,43.5,0,0,0,4.85,76.1Z" transform="translate(0 0)" fill="#accaf0" stroke="rgba(0,0,0,0)" stroke-width="1"/>
      </g>
      <path id="Shape-2" data-name="Shape" stroke="#accaf0" d="M.452,98.172C-2.781,121.727,11.663,148,32.713,156.866c11.584,4.876,23.349,3.593,31.971-3.487l.022-.024q.937-.77,1.819-1.625c5.995-4.931,26.785-18.82,63.495-10.781,5.621,1.232,9.772,1.582,12.746,1.264,32.532,5.087,56.92-21.768,54.473-59.982-2.063-32.206-22.769-63.111-49.947-74.546-5.7-2.4-11.609-5.111-17.054-5.6,0,0-74.751-22.3-123.325,78.934A38.6,38.6,0,0,0,.452,98.172Z" fill="none" transform="translate(196.917 240.998) rotate(-159)" stroke-miterlimit="10" stroke-width="1" stroke-dasharray="5" opacity="0.97" style="isolation: isolate"/>
      <rect id="Rectangle_2143" data-name="Rectangle 2143" width="10.355" height="10.355" transform="matrix(-0.643, 0.766, -0.766, -0.643, 65.617, 31.516)" fill="none" stroke="#3c58a4" stroke-miterlimit="10" stroke-width="1" opacity="0.31"/>
      <ellipse id="Ellipse_72" data-name="Ellipse 72" cx="5.59" cy="5.599" rx="5.59" ry="5.599" transform="translate(89.656 218.439)" fill="none" stroke="#3c58a4" stroke-miterlimit="10" stroke-width="1" opacity="0.31"/>
    </g>
    <g id="Group_309" data-name="Group 309" transform="translate(-8722.526 -1105.572)">
      <path id="Rectangle_2218" data-name="Rectangle 2218" d="M3.711,0H73.8a7.117,7.117,0,0,1,7.117,7.117V53.581A7.117,7.117,0,0,1,73.8,60.7H7.117A7.117,7.117,0,0,1,0,53.581V3.711A3.711,3.711,0,0,1,3.711,0Z" transform="translate(9820.611 3016.056)" fill="#fff" stroke="#4070f4" stroke-miterlimit="10" stroke-width="4.159"/>
      <path id="Path_583" data-name="Path 583" d="M9820.707,3021.4l-.091-13.017a3.224,3.224,0,0,1,2.379-3.889l72.93-17.83a3.224,3.224,0,0,1,3.888,2.379l1.132,4.693a3.225,3.225,0,0,1-2.379,3.889L9824.6,3015.45a3.223,3.223,0,0,1-3.89-2.377" transform="translate(0.001)" fill="#fff" stroke="#4070f4" stroke-miterlimit="10" stroke-width="4.159"/>
      <path id="Path_584" data-name="Path 584" d="M9853.057,3035.506l13.342,10.618-13.342,9.76Z" transform="translate(1.316 1.978)" fill="#fff" stroke="#e9b640" stroke-linecap="round" stroke-linejoin="round" stroke-width="4.1"/>
      <line id="Line_103" data-name="Line 103" x2="79.051" transform="translate(9820.611 3027.275)" fill="none" stroke="#4070f4" stroke-miterlimit="10" stroke-width="4.159"/>
      <g id="Group_307" data-name="Group 307" transform="translate(9825.71 3016.056)">
        <line id="Line_104" data-name="Line 104" x2="10.208" y2="11.218" fill="none" stroke="#4070f4" stroke-miterlimit="10" stroke-width="4.159"/>
        <line id="Line_105" data-name="Line 105" x2="10.208" y2="11.218" transform="translate(14.983)" fill="none" stroke="#4070f4" stroke-miterlimit="10" stroke-width="4.159"/>
        <line id="Line_106" data-name="Line 106" x2="10.208" y2="11.218" transform="translate(29.966)" fill="none" stroke="#4070f4" stroke-miterlimit="10" stroke-width="4.159"/>
        <line id="Line_107" data-name="Line 107" x2="10.208" y2="11.218" transform="translate(44.949)" fill="none" stroke="#4070f4" stroke-miterlimit="10" stroke-width="4.159"/>
        <line id="Line_108" data-name="Line 108" x2="10.208" y2="11.218" transform="translate(59.933)" fill="none" stroke="#4070f4" stroke-miterlimit="10" stroke-width="4.159"/>
      </g>
      <g id="Group_308" data-name="Group 308" transform="translate(9825.509 2989.622)">
        <line id="Line_109" data-name="Line 109" x2="12.504" y2="8.585" transform="translate(0 13.715)" fill="none" stroke="#4070f4" stroke-miterlimit="10" stroke-width="4.159"/>
        <line id="Line_110" data-name="Line 110" x2="12.504" y2="8.585" transform="translate(14.586 10.286)" fill="none" stroke="#4070f4" stroke-miterlimit="10" stroke-width="4.159"/>
        <line id="Line_111" data-name="Line 111" x2="12.504" y2="8.585" transform="translate(29.171 6.857)" fill="none" stroke="#4070f4" stroke-miterlimit="10" stroke-width="4.159"/>
        <line id="Line_112" data-name="Line 112" x2="12.504" y2="8.585" transform="translate(43.757 3.429)" fill="none" stroke="#4070f4" stroke-miterlimit="10" stroke-width="4.159"/>
        <line id="Line_113" data-name="Line 113" x2="12.504" y2="8.585" transform="translate(58.343)" fill="none" stroke="#4070f4" stroke-miterlimit="10" stroke-width="4.159"/>
      </g>
    </g>
  </g>
</svg>
