<svg xmlns="http://www.w3.org/2000/svg" width="159.238" height="223.621" viewBox="0 0 159.238 223.621">
  <g id="marketing3_sm" transform="translate(-36 -2253.379)">
    <text id="Ad_Film_Makers" data-name="Ad Film Makers" transform="translate(36 2410)" fill="#3b325f" font-size="22" font-family="Poppins-Bold, Poppins" font-weight="700"><tspan x="35.436" y="23">Ad Film </tspan><tspan x="35.513" y="56">Makers</tspan></text>
    <g id="Shape" transform="translate(141.205 2402.795) rotate(-144)" opacity="0.11" style="isolation: isolate">
      <path id="Path_15" data-name="Path 15" d="M2.828,44.369C-3.335,57.749.91,75,12.311,82.909a20.226,20.226,0,0,0,20.316,2.082l.018-.011q.714-.33,1.409-.717c4.567-2.115,19.836-7.568,41.031,1.876a26.537,26.537,0,0,0,7.629,2.385C101.857,95.7,121.64,83.117,126.9,60.418c4.433-19.13-2.853-39.9-17.573-50.107-3.087-2.14-6.248-4.491-9.516-5.48,0,0-42.108-22.707-89.964,30.325A25.362,25.362,0,0,0,2.828,44.369Z" transform="translate(0 0)" fill="#accaf0" stroke="rgba(0,0,0,0)" stroke-width="1"/>
    </g>
    <path id="Shape-2" data-name="Shape" stroke="#accaf0" d="M.264,57.236C-1.621,70.968,6.8,86.289,19.072,91.455c6.754,2.843,13.613,2.095,18.64-2.033l.013-.014q.546-.449,1.061-.947C42.28,85.586,54.4,77.489,75.8,82.176a24.376,24.376,0,0,0,7.431.737c18.967,2.966,33.185-12.691,31.758-34.97-1.2-18.777-13.275-36.795-29.12-43.462-3.322-1.4-6.768-2.98-9.942-3.265,0,0-43.581-13-71.9,46.02A22.5,22.5,0,0,0,.264,57.236Z" fill="none" transform="translate(75.237 2266.581) rotate(17)" stroke-miterlimit="10" stroke-width="1" stroke-dasharray="5" opacity="0.97" style="isolation: isolate"/>
    <rect id="Rectangle_2143" data-name="Rectangle 2143" width="6.037" height="6.037" transform="matrix(0.588, -0.809, 0.809, 0.588, 112, 2383.074)" fill="none" stroke="#3c58a4" stroke-miterlimit="10" stroke-width="1" opacity="0.31"/>
    <ellipse id="Ellipse_72" data-name="Ellipse 72" cx="3.259" cy="3.264" rx="3.259" ry="3.264" transform="matrix(-0.998, 0.07, -0.07, -0.998, 119.958, 2305.339)" fill="none" stroke="#3c58a4" stroke-miterlimit="10" stroke-width="1" opacity="0.31"/>
    <path id="Rectangle_2218" data-name="Rectangle 2218" d="M3.711,0H40.057a7.117,7.117,0,0,1,7.117,7.117V28.271a7.117,7.117,0,0,1-7.117,7.117H7.117A7.117,7.117,0,0,1,0,28.271V3.711A3.711,3.711,0,0,1,3.711,0Z" transform="translate(93 2319.731)" fill="#fff" stroke="#4070f4" stroke-miterlimit="10" stroke-width="3"/>
    <path id="Path_583" data-name="Path 583" d="M9820.631,3006.874l-.053-7.589a1.881,1.881,0,0,1,1.387-2.268l42.52-10.395a1.88,1.88,0,0,1,2.267,1.387l.659,2.736a1.879,1.879,0,0,1-1.387,2.267l-43.125,10.394a1.879,1.879,0,0,1-2.268-1.386" transform="translate(-9727.525 -684.03)" fill="#fff" stroke="#4070f4" stroke-miterlimit="10" stroke-width="3"/>
    <path id="Path_584" data-name="Path 584" d="M9853.057,3035.506l7.778,6.19-7.778,5.69Z" transform="translate(-9740.057 -703.282)" fill="#fff" stroke="#e9b640" stroke-linecap="round" stroke-linejoin="round" stroke-width="4.1"/>
    <line id="Line_103" data-name="Line 103" x2="46.088" transform="translate(93 2326.272)" fill="none" stroke="#4070f4" stroke-miterlimit="10" stroke-width="4.159"/>
    <g id="Group_307" data-name="Group 307" transform="translate(95.5 2319.731)">
      <line id="Line_104" data-name="Line 104" x2="5.951" y2="6.54" fill="none" stroke="#4070f4" stroke-miterlimit="10" stroke-width="3"/>
      <line id="Line_105" data-name="Line 105" x2="5.951" y2="6.54" transform="translate(8.736)" fill="none" stroke="#4070f4" stroke-miterlimit="10" stroke-width="3"/>
      <line id="Line_106" data-name="Line 106" x2="5.951" y2="6.54" transform="translate(17.471)" fill="none" stroke="#4070f4" stroke-miterlimit="10" stroke-width="3"/>
      <line id="Line_107" data-name="Line 107" x2="5.951" y2="6.54" transform="translate(26.206)" fill="none" stroke="#4070f4" stroke-miterlimit="10" stroke-width="3"/>
      <line id="Line_108" data-name="Line 108" x2="5.951" y2="6.54" transform="translate(34.942)" fill="none" stroke="#4070f4" stroke-miterlimit="10" stroke-width="3"/>
    </g>
    <g id="Group_308" data-name="Group 308" transform="translate(95.5 2304.32)">
      <line id="Line_109" data-name="Line 109" x2="7.29" y2="5.005" transform="translate(0 7.996)" fill="none" stroke="#4070f4" stroke-miterlimit="10" stroke-width="3"/>
      <line id="Line_110" data-name="Line 110" x2="7.29" y2="5.005" transform="translate(8.504 5.997)" fill="none" stroke="#4070f4" stroke-miterlimit="10" stroke-width="3"/>
      <line id="Line_111" data-name="Line 111" x2="7.29" y2="5.005" transform="translate(17.007 3.998)" fill="none" stroke="#4070f4" stroke-miterlimit="10" stroke-width="3"/>
      <line id="Line_112" data-name="Line 112" x2="7.29" y2="5.005" transform="translate(25.511 1.999)" fill="none" stroke="#4070f4" stroke-miterlimit="10" stroke-width="3"/>
      <line id="Line_113" data-name="Line 113" x2="7.29" y2="5.005" transform="translate(34.015)" fill="none" stroke="#4070f4" stroke-miterlimit="10" stroke-width="3"/>
    </g>
  </g>
</svg>
