<svg xmlns="http://www.w3.org/2000/svg" width="269.936" height="280.799" viewBox="0 0 269.936 280.799">
  <g id="marketing1_lg" transform="translate(-349.093 -1783.2)">
    <text id="Product_Photoshoot" data-name="Product Photoshoot" transform="translate(490 2055.998)" fill="#3b325f" font-size="22" font-family="Poppins-Bold, Poppins" font-weight="700"><tspan x="-111.705" y="0">Product Photoshoot</tspan></text>
    <g id="Group_304" data-name="Group 304" transform="translate(350 1783.974)">
      <g id="Shape" transform="translate(99.824 0) rotate(40)" opacity="0.11" style="isolation: isolate">
        <path id="Path_15" data-name="Path 15" d="M4.85,76.1c-10.571,22.949-3.289,52.545,16.266,66.105,10.761,7.462,23.584,8.776,34.847,3.571l.03-.019q1.225-.566,2.416-1.23c7.833-3.627,34.024-12.981,70.377,3.218,5.566,2.481,9.847,3.752,13.086,4.091,32.835,12.309,66.767-9.275,75.788-48.208,7.6-32.812-4.893-68.443-30.141-85.944-5.295-3.67-10.717-7.7-16.322-9.4,0,0-72.224-38.947-154.309,52.014A43.5,43.5,0,0,0,4.85,76.1Z" transform="translate(0 0)" fill="#accaf0" stroke="rgba(0,0,0,0)" stroke-width="1"/>
      </g>
      <path id="Shape-2" data-name="Shape" stroke="#accaf0" d="M.452,98.172C-2.781,121.727,11.663,148,32.713,156.866c11.584,4.876,23.349,3.593,31.971-3.487l.022-.024q.937-.77,1.819-1.625C72.52,146.8,93.31,132.91,130.02,140.95c5.621,1.232,9.772,1.582,12.746,1.264,32.532,5.087,56.92-21.768,54.473-59.982-2.063-32.206-22.769-63.111-49.947-74.546-5.7-2.4-11.609-5.111-17.054-5.6,0,0-74.751-22.3-123.325,78.934A38.6,38.6,0,0,0,.452,98.172Z" fill="none" transform="translate(196.917 240.998) rotate(-159)" stroke-miterlimit="10" stroke-width="1" stroke-dasharray="5" opacity="0.97" style="isolation: isolate"/>
      <rect id="Rectangle_2143" data-name="Rectangle 2143" width="10.355" height="10.355" transform="matrix(-0.643, 0.766, -0.766, -0.643, 65.617, 31.516)" fill="none" stroke="#3c58a4" stroke-miterlimit="10" stroke-width="1" opacity="0.31"/>
      <ellipse id="Ellipse_72" data-name="Ellipse 72" cx="5.59" cy="5.599" rx="5.59" ry="5.599" transform="translate(89.656 218.439)" fill="none" stroke="#3c58a4" stroke-miterlimit="10" stroke-width="1" opacity="0.31"/>
    </g>
    <g id="Group_305" data-name="Group 305" transform="translate(-9228.979 -931.057)">
      <rect id="Rectangle_2213" data-name="Rectangle 2213" width="92.164" height="73.864" rx="8.718" transform="translate(9657.979 2832.756)" fill="#fff" stroke="#4070f4" stroke-miterlimit="10" stroke-width="4.159"/>
      <rect id="Rectangle_2214" data-name="Rectangle 2214" width="61.194" height="51.402" rx="5.926" transform="translate(9724.239 2807.055)" fill="#fff" stroke="#4070f4" stroke-miterlimit="10" stroke-width="4.159"/>
      <circle id="Ellipse_84" data-name="Ellipse 84" cx="20.281" cy="20.281" r="20.281" transform="translate(9683.779 2849.407)" fill="#fff" stroke="#4070f4" stroke-miterlimit="10" stroke-width="4.159"/>
      <path id="Path_579" data-name="Path 579" d="M9694.947,2862.893a11.832,11.832,0,0,1,8.163-5.334" fill="none" stroke="#4070f4" stroke-miterlimit="10" stroke-width="4.159"/>
      <rect id="Rectangle_2215" data-name="Rectangle 2215" width="22.829" height="8.338" rx="4.169" transform="translate(9668.826 2823.685)" fill="#fff" stroke="#4070f4" stroke-miterlimit="10" stroke-width="4.159"/>
      <path id="Path_580" data-name="Path 580" d="M9772.478,2821.244c0,9.246-16.743,16.743-16.743,16.743s-16.743-7.5-16.743-16.743" fill="#fff" stroke="#e9b640" stroke-linecap="round" stroke-linejoin="round" stroke-width="4.159"/>
      <circle id="Ellipse_85" data-name="Ellipse 85" cx="2.854" cy="2.854" r="2.854" transform="translate(9752.881 2839.714)" stroke-width="4.159" stroke="#e9b640" stroke-linecap="round" stroke-linejoin="round" fill="#fff"/>
    </g>
  </g>
</svg>
