<svg xmlns="http://www.w3.org/2000/svg" width="255.634" height="299.114" viewBox="0 0 255.634 299.114">
  <g id="miscellaneous3_lg" transform="translate(-995.471 -3754.884)">
    <text id="Box_Display_Manufacturers" data-name="Box / Display 
Manufacturers" transform="translate(1111 4012.998)" fill="#3b325f" font-size="22" font-family="Poppins-Bold, Poppins" font-weight="700"><tspan x="-75.218" y="0">Box / Display </tspan><tspan x="-84.689" y="33">Manufacturers</tspan></text>
    <g id="Group_332" data-name="Group 332" transform="matrix(-0.914, 0.407, -0.407, -0.914, 1298.722, 3928.861)">
      <g id="Shape" transform="translate(99.824 0) rotate(40)" opacity="0.11" style="isolation: isolate">
        <path id="Path_15" data-name="Path 15" d="M4.85,76.1c-10.571,22.949-3.289,52.545,16.266,66.105,10.761,7.462,23.584,8.776,34.847,3.571l.03-.019q1.225-.566,2.416-1.23c7.833-3.627,34.024-12.981,70.377,3.218,5.566,2.481,9.847,3.752,13.086,4.091,32.835,12.309,66.767-9.275,75.788-48.208,7.6-32.812-4.893-68.443-30.141-85.944-5.295-3.67-10.717-7.7-16.322-9.4,0,0-72.224-38.947-154.309,52.014A43.5,43.5,0,0,0,4.85,76.1Z" transform="translate(0 0)" fill="#accaf0" stroke="rgba(0,0,0,0)" stroke-width="1"/>
      </g>
      <path id="Shape-2" data-name="Shape" stroke="#accaf0" d="M.452,98.172C-2.781,121.727,11.663,148,32.713,156.866c11.584,4.876,23.349,3.593,31.971-3.487l.022-.024q.937-.77,1.819-1.625c5.995-4.931,26.785-18.82,63.495-10.781,5.621,1.232,9.772,1.582,12.746,1.264,32.532,5.087,56.92-21.768,54.473-59.982-2.063-32.206-22.769-63.111-49.947-74.546-5.7-2.4-11.609-5.111-17.054-5.6,0,0-74.751-22.3-123.325,78.934A38.6,38.6,0,0,0,.452,98.172Z" fill="none" transform="translate(196.917 240.998) rotate(-159)" stroke-miterlimit="10" stroke-width="1" stroke-dasharray="5" opacity="0.97" style="isolation: isolate"/>
      <rect id="Rectangle_2143" data-name="Rectangle 2143" width="10.355" height="10.355" transform="matrix(-0.643, 0.766, -0.766, -0.643, 65.617, 31.516)" fill="none" stroke="#3c58a4" stroke-miterlimit="10" stroke-width="1" opacity="0.31"/>
      <ellipse id="Ellipse_72" data-name="Ellipse 72" cx="5.59" cy="5.599" rx="5.59" ry="5.599" transform="translate(89.656 218.439)" fill="none" stroke="#3c58a4" stroke-miterlimit="10" stroke-width="1" opacity="0.31"/>
    </g>
    <g id="Group_346" data-name="Group 346" transform="translate(-8518.132 491.67)">
      <path id="Path_614" data-name="Path 614" d="M9625.874,3359.755v34.974l32.752,20.7,32.753-20.7v-34.974l-30.907,20.188Z" transform="translate(3.55 3.356)" fill="#fff"/>
      <path id="Path_615" data-name="Path 615" d="M9626.963,3359.755v34.974l32.752,20.7,32.752-20.7v-34.974" transform="translate(3.621 3.356)" fill="none" stroke="#4070f4" stroke-linecap="round" stroke-linejoin="round" stroke-width="4.159"/>
      <path id="Path_616" data-name="Path 616" d="M9660.913,3340.839l-19.92-32.509-33.97,20.815,19.919,32.509" transform="translate(2.318)" fill="#fff" stroke="#4070f4" stroke-linecap="round" stroke-linejoin="round" stroke-width="4.159"/>
      <path id="Path_617" data-name="Path 617" d="M9692.23,3360l-32.752,20.7-32.752-20.7,32.752-21.357Z" transform="translate(3.605 1.979)" fill="none" stroke="#4070f4" stroke-linecap="round" stroke-linejoin="round" stroke-width="4.159"/>
      <line id="Line_139" data-name="Line 139" y2="34.974" transform="translate(9663.083 3382.683)" fill="none" stroke="#4070f4" stroke-linecap="round" stroke-linejoin="round" stroke-width="4.159"/>
      <line id="Line_140" data-name="Line 140" y2="33.695" transform="translate(9663.083 3340.626)" fill="none" stroke="#4070f4" stroke-linecap="round" stroke-linejoin="round" stroke-width="4.159"/>
      <line id="Line_141" data-name="Line 141" x2="4.716" y2="3.097" transform="translate(9663.107 3375.274)" fill="none" stroke="#4070f4" stroke-linecap="round" stroke-linejoin="round" stroke-width="4.159"/>
      <line id="Line_142" data-name="Line 142" x1="4.716" y2="3.097" transform="translate(9658.343 3375.274)" fill="none" stroke="#4070f4" stroke-linecap="round" stroke-linejoin="round" stroke-width="4.159"/>
      <rect id="Rectangle_2236" data-name="Rectangle 2236" width="65.675" height="56.55" rx="6.045" transform="translate(9571.499 3334.613)" fill="#fff" stroke="#4070f4" stroke-miterlimit="10" stroke-width="4.159"/>
      <path id="Path_618" data-name="Path 618" d="M9621.975,3348.521c0,10.173-18.421,18.419-18.421,18.419s-18.419-8.246-18.419-18.419" transform="translate(0.89 2.623)" fill="#fff" stroke="#e9b640" stroke-linecap="round" stroke-linejoin="round" stroke-width="4.159"/>
      <circle id="Ellipse_93" data-name="Ellipse 93" cx="3.139" cy="3.139" r="3.139" transform="translate(9601.306 3371.463)" stroke-width="4.159" stroke="#e9b640" stroke-linecap="round" stroke-linejoin="round" fill="#fff"/>
    </g>
  </g>
</svg>
