<svg xmlns="http://www.w3.org/2000/svg" width="252.529" height="269.147" viewBox="0 0 252.529 269.147">
  <g id="miscellaneous4_lg" transform="translate(-1296.826 -3751.851)">
    <text id="Printing" transform="translate(1426 4012.998)" fill="#3b325f" font-size="22" font-family="Poppins-Bold, Poppins" font-weight="700"><tspan x="-44.825" y="0">Printing</tspan></text>
    <g id="Group_345" data-name="Group 345" transform="translate(1239 3867.334) rotate(-45)">
      <g id="Shape" transform="translate(99.824 0) rotate(40)" opacity="0.11" style="isolation: isolate">
        <path id="Path_15" data-name="Path 15" d="M4.85,76.1c-10.571,22.949-3.289,52.545,16.266,66.105,10.761,7.462,23.584,8.776,34.847,3.571l.03-.019q1.225-.566,2.416-1.23c7.833-3.627,34.024-12.981,70.377,3.218,5.566,2.481,9.847,3.752,13.086,4.091,32.835,12.309,66.767-9.275,75.788-48.208,7.6-32.812-4.893-68.443-30.141-85.944-5.295-3.67-10.717-7.7-16.322-9.4,0,0-72.224-38.947-154.309,52.014A43.5,43.5,0,0,0,4.85,76.1Z" transform="translate(0 0)" fill="#accaf0" stroke="rgba(0,0,0,0)" stroke-width="1"/>
      </g>
      <path id="Shape-2" data-name="Shape" stroke="#accaf0" d="M.452,98.172C-2.781,121.727,11.663,148,32.713,156.866c11.584,4.876,23.349,3.593,31.971-3.487l.022-.024q.937-.77,1.819-1.625c5.995-4.931,26.785-18.82,63.495-10.781,5.621,1.232,9.772,1.582,12.746,1.264,32.532,5.087,56.92-21.768,54.473-59.982-2.063-32.206-22.769-63.111-49.947-74.546-5.7-2.4-11.609-5.111-17.054-5.6,0,0-74.751-22.3-123.325,78.934A38.6,38.6,0,0,0,.452,98.172Z" fill="none" transform="translate(196.917 240.998) rotate(-159)" stroke-miterlimit="10" stroke-width="1" stroke-dasharray="5" opacity="0.97" style="isolation: isolate"/>
      <rect id="Rectangle_2143" data-name="Rectangle 2143" width="10.355" height="10.355" transform="matrix(-0.643, 0.766, -0.766, -0.643, 65.617, 31.516)" fill="none" stroke="#3c58a4" stroke-miterlimit="10" stroke-width="1" opacity="0.31"/>
      <ellipse id="Ellipse_72" data-name="Ellipse 72" cx="5.59" cy="5.599" rx="5.59" ry="5.599" transform="translate(89.656 218.439)" fill="none" stroke="#3c58a4" stroke-miterlimit="10" stroke-width="1" opacity="0.31"/>
    </g>
    <g id="Group_353" data-name="Group 353" transform="translate(-8608.978 493.06)">
      <rect id="Rectangle_2238" data-name="Rectangle 2238" width="119.955" height="36.411" rx="6.626" transform="translate(9974.978 3338.94)" fill="#fff" stroke="#4070f4" stroke-miterlimit="10" stroke-width="4.159"/>
      <path id="Rectangle_2239" data-name="Rectangle 2239" d="M0,0H58.779a0,0,0,0,1,0,0V45.144a5.468,5.468,0,0,1-5.468,5.468H5.468A5.468,5.468,0,0,1,0,45.144V0A0,0,0,0,1,0,0Z" transform="translate(10005.565 3358.195)" fill="#fff" stroke="#4070f4" stroke-miterlimit="10" stroke-width="4.159"/>
      <g id="Group_349" data-name="Group 349" transform="translate(10018.77 3372.849)">
        <line id="Line_143" data-name="Line 143" x1="35.087" stroke-width="4.159" stroke="#e9b640" stroke-linecap="round" stroke-linejoin="round" fill="none"/>
        <line id="Line_144" data-name="Line 144" x1="22.573" transform="translate(0 10.06)" fill="none" stroke="#e9b640" stroke-linecap="round" stroke-linejoin="round" stroke-width="4.159"/>
        <line id="Line_145" data-name="Line 145" x1="26.745" transform="translate(0 20.12)" fill="none" stroke="#e9b640" stroke-linecap="round" stroke-linejoin="round" stroke-width="4.159"/>
      </g>
      <g id="Group_352" data-name="Group 352" transform="translate(9979.758 3375.781)">
        <g id="Group_350" data-name="Group 350">
          <line id="Line_146" data-name="Line 146" y2="37.265" transform="translate(4.712)" fill="none" stroke="#4070f4" stroke-linecap="round" stroke-miterlimit="10" stroke-width="4.159"/>
          <line id="Line_147" data-name="Line 147" x2="9.423" transform="translate(0 37.306)" fill="none" stroke="#4070f4" stroke-linecap="round" stroke-miterlimit="10" stroke-width="4.159"/>
        </g>
        <g id="Group_351" data-name="Group 351" transform="translate(99.437)">
          <line id="Line_148" data-name="Line 148" y2="37.265" transform="translate(4.712)" fill="none" stroke="#4070f4" stroke-linecap="round" stroke-miterlimit="10" stroke-width="4.159"/>
          <line id="Line_149" data-name="Line 149" x2="9.423" transform="translate(0 37.306)" fill="none" stroke="#4070f4" stroke-linecap="round" stroke-miterlimit="10" stroke-width="4.159"/>
        </g>
      </g>
      <line id="Line_150" data-name="Line 150" x2="80.342" transform="translate(9994.783 3357.407)" fill="none" stroke="#4070f4" stroke-miterlimit="10" stroke-width="4.159"/>
    </g>
  </g>
</svg>
