<svg xmlns="http://www.w3.org/2000/svg" width="172.638" height="222.708" viewBox="0 0 172.638 222.708">
  <g id="miscellaneous3_sm" transform="translate(-30.361 -4116.292)">
    <text id="Box_Display_Manufacturers" data-name="Box / Display 
Manufacturers" transform="translate(118 4298)" fill="#3b325f" font-size="22" font-family="Poppins-Bold, Poppins" font-weight="700"><tspan x="-75.218" y="0">Box / Display </tspan><tspan x="-84.689" y="33">Manufacturers</tspan></text>
    <g id="Group_2273" data-name="Group 2273" transform="matrix(-0.914, 0.407, -0.407, -0.914, 226.413, 4228.877)">
      <g id="Shape" transform="translate(64.464 0) rotate(40)" opacity="0.11" style="isolation: isolate">
        <path id="Path_15" data-name="Path 15" d="M3.132,49.146c-6.827,14.82-2.124,33.932,10.5,42.689,6.949,4.819,15.23,5.668,22.5,2.306l.019-.012q.791-.365,1.56-.794c5.058-2.342,21.972-8.383,45.448,2.078a29.393,29.393,0,0,0,8.451,2.642c21.2,7.949,43.117-5.989,48.942-31.131,4.91-21.189-3.16-44.2-19.465-55.5-3.419-2.37-6.921-4.974-10.54-6.07,0,0-46.641-25.151-99.65,33.589A28.092,28.092,0,0,0,3.132,49.146Z" transform="translate(0 0)" fill="#accaf0" stroke="rgba(0,0,0,0)" stroke-width="1"/>
      </g>
      <path id="Shape-2" data-name="Shape" stroke="#accaf0" d="M.292,63.4C-1.8,78.608,7.532,95.578,21.125,101.3c7.481,3.149,15.078,2.321,20.646-2.252l.014-.015q.605-.5,1.175-1.049c3.871-3.184,17.3-12.154,41-6.962a27,27,0,0,0,8.231.816C113.2,95.124,128.953,77.781,127.373,53.1c-1.332-20.8-14.7-40.756-32.255-48.14-3.68-1.549-7.5-3.3-11.013-3.616,0,0-48.273-14.4-79.641,50.974A24.927,24.927,0,0,0,.292,63.4Z" fill="none" transform="translate(127.165 155.631) rotate(-159)" stroke-miterlimit="10" stroke-width="1" stroke-dasharray="5" opacity="0.97" style="isolation: isolate"/>
      <rect id="Rectangle_2143" data-name="Rectangle 2143" width="6.687" height="6.687" transform="matrix(-0.643, 0.766, -0.766, -0.643, 42.374, 20.353)" fill="none" stroke="#3c58a4" stroke-miterlimit="10" stroke-width="1" opacity="0.31"/>
      <ellipse id="Ellipse_72" data-name="Ellipse 72" cx="3.61" cy="3.615" rx="3.61" ry="3.615" transform="translate(57.898 141.064)" fill="none" stroke="#3c58a4" stroke-miterlimit="10" stroke-width="1" opacity="0.31"/>
    </g>
    <g id="Group_2275" data-name="Group 2275" transform="translate(67.969 4145.661)">
      <path id="Path_614" data-name="Path 614" d="M9625.874,3359.755v22.585l21.151,13.368,21.151-13.368v-22.585l-19.96,13.037Z" transform="translate(-9588.468 -3324.379)" fill="#fff" stroke="#707070" stroke-width="3"/>
      <path id="Path_615" data-name="Path 615" d="M9626.964,3359.755v22.585l21.15,13.368,21.15-13.368v-22.585" transform="translate(-9588.809 -3324.379)" fill="none" stroke="#4070f4" stroke-linecap="round" stroke-linejoin="round" stroke-width="3"/>
      <path id="Path_616" data-name="Path 616" d="M9641.825,3329.324l-12.865-20.994-21.937,13.442,12.863,20.994" transform="translate(-9582.585 -3308.33)" fill="#fff" stroke="#4070f4" stroke-linecap="round" stroke-linejoin="round" stroke-width="3"/>
      <path id="Path_617" data-name="Path 617" d="M9669.027,3352.439l-21.149,13.368-21.151-13.368,21.151-13.792Z" transform="translate(-9588.733 -3317.791)" fill="none" stroke="#4070f4" stroke-linecap="round" stroke-linejoin="round" stroke-width="3"/>
      <line id="Line_139" data-name="Line 139" y2="22.585" transform="translate(59.143 48.015)" fill="none" stroke="#4070f4" stroke-linecap="round" stroke-linejoin="round" stroke-width="3"/>
      <line id="Line_140" data-name="Line 140" y2="21.76" transform="translate(59.143 20.856)" fill="none" stroke="#4070f4" stroke-linecap="round" stroke-linejoin="round" stroke-width="3"/>
      <line id="Line_141" data-name="Line 141" x2="3.046" y2="2" transform="translate(59.159 43.231)" fill="none" stroke="#4070f4" stroke-linecap="round" stroke-linejoin="round" stroke-width="3"/>
      <line id="Line_142" data-name="Line 142" x1="3.046" y2="2" transform="translate(56.082 43.231)" fill="none" stroke="#4070f4" stroke-linecap="round" stroke-linejoin="round" stroke-width="3"/>
      <rect id="Rectangle_2236" data-name="Rectangle 2236" width="42.411" height="36.519" rx="6.045" transform="translate(0 16.973)" fill="#fff" stroke="#4070f4" stroke-miterlimit="10" stroke-width="3"/>
      <path id="Path_618" data-name="Path 618" d="M9608.926,3348.521c0,6.57-11.9,11.895-11.9,11.895s-11.895-5.325-11.895-11.895" transform="translate(-9575.754 -3320.873)" fill="#fff" stroke="#e9b640" stroke-linecap="round" stroke-linejoin="round" stroke-width="3"/>
      <ellipse id="Ellipse_93" data-name="Ellipse 93" cx="2.027" cy="2.027" rx="2.027" ry="2.027" transform="translate(19.248 40.77)" fill="#fff" stroke="#e9b640" stroke-linecap="round" stroke-linejoin="round" stroke-width="3"/>
    </g>
  </g>
</svg>
