<svg xmlns="http://www.w3.org/2000/svg" width="163.504" height="191.802" viewBox="0 0 163.504 191.802">
  <g id="miscellaneous4_sm" transform="translate(-207.997 -4114.198)">
    <text id="Printing" transform="translate(297 4298)" fill="#3b325f" font-size="22" font-family="Poppins-Bold, Poppins" font-weight="700"><tspan x="-44.825" y="0">Printing</tspan></text>
    <g id="Group_2272" data-name="Group 2272" transform="translate(170.846 4189.144) rotate(-45)">
      <g id="Shape" transform="translate(64.464 0) rotate(40)" opacity="0.11" style="isolation: isolate">
        <path id="Path_15" data-name="Path 15" d="M3.132,49.146c-6.827,14.82-2.124,33.932,10.5,42.689,6.949,4.819,15.23,5.668,22.5,2.306l.019-.012q.791-.365,1.56-.794c5.058-2.342,21.972-8.383,45.448,2.078a29.393,29.393,0,0,0,8.451,2.642c21.2,7.949,43.117-5.989,48.942-31.131,4.91-21.189-3.16-44.2-19.465-55.5-3.419-2.37-6.921-4.974-10.54-6.07,0,0-46.641-25.151-99.65,33.589A28.092,28.092,0,0,0,3.132,49.146Z" transform="translate(0 0)" fill="#accaf0" stroke="rgba(0,0,0,0)" stroke-width="1"/>
      </g>
      <path id="Shape-2" data-name="Shape" stroke="#accaf0" d="M.292,63.4C-1.8,78.608,7.532,95.578,21.125,101.3c7.481,3.149,15.078,2.321,20.646-2.252l.014-.015q.605-.5,1.175-1.049c3.871-3.184,17.3-12.154,41-6.962a27,27,0,0,0,8.231.816C113.2,95.124,128.953,77.781,127.373,53.1c-1.332-20.8-14.7-40.756-32.255-48.14-3.68-1.549-7.5-3.3-11.013-3.616,0,0-48.273-14.4-79.641,50.974A24.927,24.927,0,0,0,.292,63.4Z" fill="none" transform="translate(127.165 155.631) rotate(-159)" stroke-miterlimit="10" stroke-width="1" stroke-dasharray="5" opacity="0.97" style="isolation: isolate"/>
      <rect id="Rectangle_2143" data-name="Rectangle 2143" width="6.687" height="6.687" transform="matrix(-0.643, 0.766, -0.766, -0.643, 42.374, 20.353)" fill="none" stroke="#3c58a4" stroke-miterlimit="10" stroke-width="1" opacity="0.31"/>
      <ellipse id="Ellipse_72" data-name="Ellipse 72" cx="3.61" cy="3.615" rx="3.61" ry="3.615" transform="translate(57.898 141.064)" fill="none" stroke="#3c58a4" stroke-miterlimit="10" stroke-width="1" opacity="0.31"/>
    </g>
    <g id="Group_2277" data-name="Group 2277" transform="translate(254.86 4166.326)">
      <rect id="Rectangle_2238" data-name="Rectangle 2238" width="77.465" height="23.513" rx="6.626" transform="translate(0 0)" fill="#fff" stroke="#4070f4" stroke-miterlimit="10" stroke-width="3"/>
      <path id="Rectangle_2239" data-name="Rectangle 2239" d="M0,0H37.958a0,0,0,0,1,0,0V27.216a5.468,5.468,0,0,1-5.468,5.468H5.468A5.468,5.468,0,0,1,0,27.216V0A0,0,0,0,1,0,0Z" transform="translate(19.753 12.434)" fill="#fff" stroke="#4070f4" stroke-miterlimit="10" stroke-width="3"/>
      <g id="Group_349" data-name="Group 349" transform="translate(28.28 21.898)">
        <line id="Line_143" data-name="Line 143" x1="22.658" stroke-width="3" stroke="#e9b640" stroke-linecap="round" stroke-linejoin="round" fill="none"/>
        <line id="Line_144" data-name="Line 144" x1="14.577" transform="translate(0 6.496)" fill="none" stroke="#e9b640" stroke-linecap="round" stroke-linejoin="round" stroke-width="3"/>
        <line id="Line_145" data-name="Line 145" x1="17.271" transform="translate(0 12.993)" fill="none" stroke="#e9b640" stroke-linecap="round" stroke-linejoin="round" stroke-width="3"/>
      </g>
      <g id="Group_352" data-name="Group 352" transform="translate(3.087 23.791)">
        <g id="Group_350" data-name="Group 350">
          <line id="Line_146" data-name="Line 146" y2="24.065" transform="translate(3.043)" fill="none" stroke="#4070f4" stroke-linecap="round" stroke-miterlimit="10" stroke-width="3"/>
          <line id="Line_147" data-name="Line 147" x2="6.085" transform="translate(0 24.091)" fill="none" stroke="#4070f4" stroke-linecap="round" stroke-miterlimit="10" stroke-width="3"/>
        </g>
        <g id="Group_351" data-name="Group 351" transform="translate(64.214)">
          <line id="Line_148" data-name="Line 148" y2="24.065" transform="translate(3.043)" fill="none" stroke="#4070f4" stroke-linecap="round" stroke-miterlimit="10" stroke-width="3"/>
          <line id="Line_149" data-name="Line 149" x2="6.085" transform="translate(0 24.091)" fill="none" stroke="#4070f4" stroke-linecap="round" stroke-miterlimit="10" stroke-width="3"/>
        </g>
      </g>
      <line id="Line_150" data-name="Line 150" x2="51.883" transform="translate(12.79 11.925)" fill="none" stroke="#4070f4" stroke-miterlimit="10" stroke-width="3"/>
    </g>
  </g>
</svg>
