<svg xmlns="http://www.w3.org/2000/svg" width="270.828" height="267.822" viewBox="0 0 270.828 267.822">
  <g id="services3_lg" transform="translate(-975.526 -1161.178)">
    <text id="Insurance" transform="translate(1117 1421)" fill="#3b325f" font-size="22" font-family="Poppins-Bold, Poppins" font-weight="700"><tspan x="-57.233" y="0">Insurance</tspan></text>
    <g id="Group_297" data-name="Group 297" transform="matrix(-0.998, 0.07, -0.07, -0.998, 1253.758, 1409.996)">
      <g id="Shape" transform="translate(99.824 0) rotate(40)" opacity="0.11" style="isolation: isolate">
        <path id="Path_15" data-name="Path 15" d="M4.85,76.1c-10.571,22.949-3.289,52.545,16.266,66.105,10.761,7.462,23.584,8.776,34.847,3.571l.03-.019q1.225-.566,2.416-1.23c7.833-3.627,34.024-12.981,70.377,3.218,5.566,2.481,9.847,3.752,13.086,4.091,32.835,12.309,66.767-9.275,75.788-48.208,7.6-32.812-4.893-68.443-30.141-85.944-5.295-3.67-10.717-7.7-16.322-9.4,0,0-72.224-38.947-154.309,52.014A43.5,43.5,0,0,0,4.85,76.1Z" transform="translate(0 0)" fill="#accaf0" stroke="rgba(0,0,0,0)" stroke-width="1"/>
      </g>
      <path id="Shape-2" data-name="Shape" stroke="#accaf0" d="M.452,98.172C-2.781,121.727,11.663,148,32.713,156.866c11.584,4.876,23.349,3.593,31.971-3.487l.022-.024q.937-.77,1.819-1.625c5.995-4.931,26.785-18.82,63.495-10.781,5.621,1.232,9.772,1.582,12.746,1.264,32.532,5.087,56.92-21.768,54.473-59.982-2.063-32.206-22.769-63.111-49.947-74.546-5.7-2.4-11.609-5.111-17.054-5.6,0,0-74.751-22.3-123.325,78.934A38.6,38.6,0,0,0,.452,98.172Z" fill="none" transform="translate(196.917 240.998) rotate(-159)" stroke-miterlimit="10" stroke-width="1" stroke-dasharray="5" opacity="0.97" style="isolation: isolate"/>
      <rect id="Rectangle_2143" data-name="Rectangle 2143" width="10.355" height="10.355" transform="matrix(-0.643, 0.766, -0.766, -0.643, 65.617, 31.516)" fill="none" stroke="#3c58a4" stroke-miterlimit="10" stroke-width="1" opacity="0.31"/>
      <ellipse id="Ellipse_72" data-name="Ellipse 72" cx="5.59" cy="5.599" rx="5.59" ry="5.599" transform="translate(89.656 218.439)" fill="none" stroke="#3c58a4" stroke-miterlimit="10" stroke-width="1" opacity="0.31"/>
    </g>
    <g id="Group_295" data-name="Group 295" transform="translate(-8610.676 -1633.116)">
      <path id="Union_8" data-name="Union 8" d="M0,22.857A138.309,138.309,0,0,0,48.293,0a138.27,138.27,0,0,0,48.29,22.857c-4.052,41.271-13.391,84.2-48.29,89.228C13.391,107.056,4.052,64.128,0,22.857Z" transform="translate(9672.997 2857.557)" fill="#fff" stroke="#4070f4" stroke-miterlimit="10" stroke-width="4.159"/>
      <g id="Group_294" data-name="Group 294" transform="translate(9693.664 2890.164)">
        <path id="Path_574" data-name="Path 574" d="M9716.961,2923.713H9693.15a1.8,1.8,0,0,1-1.763-2.167l3.25-15.6a1.8,1.8,0,0,1,1.763-1.433h17.311a1.8,1.8,0,0,1,1.762,1.433l3.251,15.6A1.8,1.8,0,0,1,9716.961,2923.713Z" transform="translate(-9691.349 -2884.239)" fill="#fff" stroke="#e9b640" stroke-miterlimit="10" stroke-width="4.1"/>
        <path id="Path_575" data-name="Path 575" d="M9741.678,2923.713h-23.811a1.8,1.8,0,0,1-1.763-2.167l3.251-15.6a1.8,1.8,0,0,1,1.762-1.433h17.311a1.8,1.8,0,0,1,1.764,1.433l3.249,15.6A1.8,1.8,0,0,1,9741.678,2923.713Z" transform="translate(-9688.229 -2884.239)" fill="#fff" stroke="#e9b640" stroke-miterlimit="10" stroke-width="4.1"/>
        <path id="Path_576" data-name="Path 576" d="M9729.238,2905.714h-23.811a1.8,1.8,0,0,1-1.763-2.168l3.25-15.6a1.8,1.8,0,0,1,1.764-1.434h17.311a1.8,1.8,0,0,1,1.762,1.434l3.25,15.6A1.8,1.8,0,0,1,9729.238,2905.714Z" transform="translate(-9689.799 -2886.51)" fill="#fff" stroke="#e9b640" stroke-miterlimit="10" stroke-width="4.1"/>
      </g>
    </g>
  </g>
</svg>
