<svg xmlns="http://www.w3.org/2000/svg" width="169.781" height="186.773" viewBox="0 0 169.781 186.773">
  <g id="services4_sm" transform="translate(-212.168 -1527.227)">
    <text id="Lawyer" transform="translate(297 1706)" fill="#3b325f" font-size="22" font-family="Poppins-Bold, Poppins" font-weight="700"><tspan x="-40.678" y="0">Lawyer</tspan></text>
    <g id="Group_298" data-name="Group 298" transform="translate(213 1527.976)">
      <g id="Shape" transform="translate(62.591 0) rotate(40)" opacity="0.11" style="isolation: isolate">
        <path id="Path_15" data-name="Path 15" d="M3.041,47.718C-3.587,62.107.979,80.664,13.24,89.167c6.747,4.679,14.787,5.5,21.85,2.239l.019-.012q.768-.355,1.515-.771c4.912-2.274,21.334-8.139,44.128,2.018a28.539,28.539,0,0,0,8.205,2.565c20.588,7.718,41.864-5.815,47.52-30.227,4.767-20.574-3.068-42.915-18.9-53.889-3.32-2.3-6.719-4.83-10.234-5.893,0,0-45.286-24.421-96.754,32.613A27.276,27.276,0,0,0,3.041,47.718Z" transform="translate(0 0)" fill="#accaf0" stroke="rgba(0,0,0,0)" stroke-width="1"/>
      </g>
      <path id="Shape-2" data-name="Shape" stroke="#accaf0" d="M.284,61.555C-1.743,76.325,7.313,92.8,20.512,98.358c7.263,3.058,14.64,2.253,20.047-2.186l.014-.015q.587-.483,1.141-1.019c3.759-3.092,16.795-11.8,39.812-6.76a26.216,26.216,0,0,0,7.992.793c20.4,3.19,35.69-13.649,34.155-37.61C122.379,31.367,109.4,11.989,92.354,4.819c-3.573-1.5-7.279-3.2-10.693-3.511,0,0-46.87-13.985-77.327,49.493A24.2,24.2,0,0,0,.284,61.555Z" fill="none" transform="translate(123.47 151.11) rotate(-159)" stroke-miterlimit="10" stroke-width="1" stroke-dasharray="5" opacity="0.97" style="isolation: isolate"/>
      <rect id="Rectangle_2143" data-name="Rectangle 2143" width="6.493" height="6.493" transform="matrix(-0.643, 0.766, -0.766, -0.643, 41.143, 19.761)" fill="none" stroke="#3c58a4" stroke-miterlimit="10" stroke-width="1" opacity="0.31"/>
      <ellipse id="Ellipse_72" data-name="Ellipse 72" cx="3.505" cy="3.51" rx="3.505" ry="3.51" transform="translate(56.216 136.965)" fill="none" stroke="#3c58a4" stroke-miterlimit="10" stroke-width="1" opacity="0.31"/>
    </g>
    <g id="Group_300" data-name="Group 300" transform="translate(262 1590.066)">
      <rect id="Rectangle_2208" data-name="Rectangle 2208" width="46.05" height="5.745" rx="2.872" transform="translate(0 47.128)" fill="#fff" stroke="#4070f4" stroke-miterlimit="10" stroke-width="3"/>
      <path id="Rectangle_2209" data-name="Rectangle 2209" d="M6.872,0H19.938A6.872,6.872,0,0,1,26.81,6.872V7.979a0,0,0,0,1,0,0H0a0,0,0,0,1,0,0V6.872A6.872,6.872,0,0,1,6.872,0Z" transform="translate(9.62 39.149)" fill="#fff" stroke="#4070f4" stroke-miterlimit="10" stroke-width="3"/>
      <rect id="Rectangle_2210" data-name="Rectangle 2210" width="30.639" height="4.309" rx="2.021" transform="translate(30.837 7.292) rotate(45)" fill="#fff" stroke="#4070f4" stroke-miterlimit="10" stroke-width="3"/>
      <rect id="Rectangle_2211" data-name="Rectangle 2211" width="22.558" height="5.781" rx="2.008" transform="translate(53.023 28.437) rotate(45)" fill="#fff" stroke="#4070f4" stroke-miterlimit="10" stroke-width="3"/>
      <g id="Group_299" data-name="Group 299" transform="translate(20.498 0)">
        <path id="Path_577" data-name="Path 577" d="M9862.012,2883.5l4.044-4.044a4.318,4.318,0,0,0,0-6.106l-4.74-4.739a4.315,4.315,0,0,0-6.1,0l-4.044,4.044Z" transform="translate(-9837.226 -2867.341)" fill="#fff" stroke="#e9b640" stroke-miterlimit="10" stroke-width="3"/>
        <path id="Path_578" data-name="Path 578" d="M9834.241,2889.575l-4.045,4.044a4.317,4.317,0,0,0,0,6.106l4.739,4.739a4.319,4.319,0,0,0,6.106,0l4.043-4.044Z" transform="translate(-9828.932 -2875.634)" fill="#fff" stroke="#e9b640" stroke-miterlimit="10" stroke-width="3"/>
        <rect id="Rectangle_2212" data-name="Rectangle 2212" width="12.327" height="12.327" transform="translate(14.754 6.624) rotate(45)" fill="#fff" stroke="#e9b640" stroke-miterlimit="10" stroke-width="3"/>
      </g>
    </g>
  </g>
</svg>
