<svg xmlns="http://www.w3.org/2000/svg" width="156.506" height="216.73" viewBox="0 0 156.506 216.73">
  <g id="software2_sm" transform="translate(-212 -3217.27)">
    <text id="App_Web_Development" data-name="App / Web 
Development" transform="translate(289 3393)" fill="#3b325f" font-size="22" font-family="Poppins-Bold, Poppins" font-weight="700"><tspan x="-60.841" y="0">App / Web </tspan><tspan x="-76.461" y="33">Development</tspan></text>
    <g id="Group_2266" data-name="Group 2266" transform="translate(192.441 3283.083) rotate(-45)">
      <g id="Shape" transform="translate(56.538 0) rotate(40)" opacity="0.11" style="isolation: isolate">
        <path id="Path_15" data-name="Path 15" d="M2.747,43.1C-3.24,56.1.884,72.863,11.96,80.544A19.648,19.648,0,0,0,31.7,82.566l.017-.011q.694-.321,1.369-.7c4.437-2.054,19.27-7.352,39.86,1.822A25.779,25.779,0,0,0,80.354,86c18.6,6.971,37.816-5.253,42.925-27.3,4.306-18.584-2.772-38.765-17.071-48.677-3-2.079-6.07-4.363-9.244-5.323,0,0-40.906-22.059-87.4,29.459A24.638,24.638,0,0,0,2.747,43.1Z" transform="translate(0 0)" fill="#accaf0" stroke="rgba(0,0,0,0)" stroke-width="1"/>
      </g>
      <path id="Shape-2" data-name="Shape" stroke="#accaf0" d="M.256,55.6C-1.575,68.943,6.606,83.827,18.528,88.846c6.561,2.762,13.224,2.035,18.108-1.975l.012-.013q.531-.436,1.03-.92c3.4-2.793,15.171-10.659,35.962-6.106a23.681,23.681,0,0,0,7.219.716c18.425,2.881,32.239-12.329,30.852-33.972-1.168-18.241-12.9-35.745-28.289-42.222C80.2,3,76.848,1.459,73.764,1.182c0,0-42.338-12.632-69.849,44.706A21.862,21.862,0,0,0,.256,55.6Z" fill="none" transform="translate(111.53 136.496) rotate(-159)" stroke-miterlimit="10" stroke-width="1" stroke-dasharray="5" opacity="0.97" style="isolation: isolate"/>
      <rect id="Rectangle_2143" data-name="Rectangle 2143" width="5.865" height="5.865" transform="matrix(-0.643, 0.766, -0.766, -0.643, 37.164, 17.85)" fill="none" stroke="#3c58a4" stroke-miterlimit="10" stroke-width="1" opacity="0.31"/>
      <ellipse id="Ellipse_72" data-name="Ellipse 72" cx="3.166" cy="3.171" rx="3.166" ry="3.171" transform="translate(50.779 123.72)" fill="none" stroke="#3c58a4" stroke-miterlimit="10" stroke-width="1" opacity="0.31"/>
    </g>
    <g id="Group_2269" data-name="Group 2269" transform="translate(262.454 3259.672)">
      <rect id="Rectangle_2223" data-name="Rectangle 2223" width="58.305" height="43.205" rx="9.363" transform="translate(13.528 9.031)" fill="#fff" stroke="#4070f4" stroke-miterlimit="10" stroke-width="3"/>
      <rect id="Rectangle_2224" data-name="Rectangle 2224" width="65.596" height="6.749" rx="3.375" transform="translate(9.882 51.637)" fill="#fff" stroke="#4070f4" stroke-miterlimit="10" stroke-width="3"/>
      <g id="Group_328" data-name="Group 328" transform="translate(29.935 26.863)">
        <path id="Path_599" data-name="Path 599" d="M9513.889,3177.6l-5.779,5.78,5.779,5.043" transform="translate(-9508.109 -3177.6)" fill="none" stroke="#e9b640" stroke-linecap="round" stroke-linejoin="round" stroke-width="3"/>
        <path id="Path_600" data-name="Path 600" d="M9539.514,3177.6l5.779,5.78-5.779,5.043" transform="translate(-9521.727 -3177.6)" fill="none" stroke="#e9b640" stroke-linecap="round" stroke-linejoin="round" stroke-width="3"/>
        <line id="Line_126" data-name="Line 126" y1="9.434" x2="5.715" transform="translate(9.88 0.695)" fill="none" stroke="#e9b640" stroke-linecap="round" stroke-linejoin="round" stroke-width="3"/>
      </g>
      <rect id="Rectangle_2225" data-name="Rectangle 2225" width="34.918" height="30.067" rx="6.045" fill="#fff" stroke="#4070f4" stroke-miterlimit="10" stroke-width="3"/>
      <rect id="Rectangle_2226" data-name="Rectangle 2226" width="34.918" height="30.067" rx="6.045" transform="translate(59.272 33.151)" fill="#fff" stroke="#4070f4" stroke-miterlimit="10" stroke-width="3"/>
      <g id="Group_329" data-name="Group 329" transform="translate(67.741 43.735)">
        <line id="Line_127" data-name="Line 127" x1="15.475" stroke-width="3" stroke="#e9b640" stroke-linecap="round" stroke-linejoin="round" fill="none"/>
        <line id="Line_128" data-name="Line 128" x1="9.956" transform="translate(0 4.437)" fill="none" stroke="#e9b640" stroke-linecap="round" stroke-linejoin="round" stroke-width="3"/>
        <line id="Line_129" data-name="Line 129" x1="11.795" transform="translate(0 8.874)" fill="none" stroke="#e9b640" stroke-linecap="round" stroke-linejoin="round" stroke-width="3"/>
      </g>
      <ellipse id="Ellipse_87" data-name="Ellipse 87" cx="2.191" cy="2.191" rx="2.191" ry="2.191" transform="translate(7.605 6.134)" fill="#fff" stroke="#e9b640" stroke-miterlimit="10" stroke-width="3"/>
      <path id="Path_601" data-name="Path 601" d="M9467.321,3162.325l5.424-5.423,4.819,4.819,8.264-8.264,2.192,2.192" transform="translate(-9460.487 -3140.268)" fill="#fff" stroke="#e9b640" stroke-linecap="round" stroke-linejoin="round" stroke-width="3"/>
    </g>
  </g>
</svg>
