<svg xmlns="http://www.w3.org/2000/svg" width="269.936" height="276.799" viewBox="0 0 269.936 276.799">
  <g id="software1_lg" transform="translate(-490.093 -3072.199)">
    <text id="Jewellery_Software" data-name="Jewellery Software" transform="translate(631 3340.998)" fill="#3b325f" font-size="22" font-family="Poppins-Bold, Poppins" font-weight="700"><tspan x="-107.371" y="0">Jewellery Software</tspan></text>
    <g id="software_js_lg" transform="translate(491 3072.974)">
      <g id="Shape" transform="translate(99.824 0) rotate(40)" opacity="0.11" style="isolation: isolate">
        <path id="Path_15" data-name="Path 15" d="M4.85,76.1c-10.571,22.949-3.289,52.545,16.266,66.105,10.761,7.462,23.584,8.776,34.847,3.571l.03-.019q1.225-.566,2.416-1.23c7.833-3.627,34.024-12.981,70.377,3.218,5.566,2.481,9.847,3.752,13.086,4.091,32.835,12.309,66.767-9.275,75.788-48.208,7.6-32.812-4.893-68.443-30.141-85.944-5.295-3.67-10.717-7.7-16.322-9.4,0,0-72.224-38.947-154.309,52.014A43.5,43.5,0,0,0,4.85,76.1Z" transform="translate(0 0)" fill="#accaf0" stroke="rgba(0,0,0,0)" stroke-width="1"/>
      </g>
      <path id="Shape-2" data-name="Shape" stroke="#accaf0" d="M.452,98.172C-2.781,121.727,11.663,148,32.713,156.866c11.584,4.876,23.349,3.593,31.971-3.487l.022-.024q.937-.77,1.819-1.625C72.52,146.8,93.31,132.91,130.02,140.95c5.621,1.232,9.772,1.582,12.746,1.264,32.532,5.087,56.92-21.768,54.473-59.982-2.063-32.206-22.769-63.111-49.947-74.546-5.7-2.4-11.609-5.111-17.054-5.6,0,0-74.751-22.3-123.325,78.934A38.6,38.6,0,0,0,.452,98.172Z" fill="none" transform="translate(196.917 240.998) rotate(-159)" stroke-miterlimit="10" stroke-width="1" stroke-dasharray="5" opacity="0.97" style="isolation: isolate"/>
      <rect id="Rectangle_2143" data-name="Rectangle 2143" width="10.355" height="10.355" transform="matrix(-0.643, 0.766, -0.766, -0.643, 65.617, 31.516)" fill="none" stroke="#3c58a4" stroke-miterlimit="10" stroke-width="1" opacity="0.31"/>
      <ellipse id="Ellipse_72" data-name="Ellipse 72" cx="5.59" cy="5.599" rx="5.59" ry="5.599" transform="translate(89.656 218.439)" fill="none" stroke="#3c58a4" stroke-miterlimit="10" stroke-width="1" opacity="0.31"/>
    </g>
    <g id="Group_327" data-name="Group 327" transform="translate(-9229.982 38.882)">
      <rect id="Rectangle_2220" data-name="Rectangle 2220" width="102.944" height="76.283" rx="9.363" transform="translate(9808.866 3138.062)" fill="#fff" stroke="#4070f4" stroke-miterlimit="10" stroke-width="4.159"/>
      <rect id="Rectangle_2221" data-name="Rectangle 2221" width="115.816" height="11.916" rx="3.925" transform="translate(9802.43 3213.289)" fill="#fff" stroke="#4070f4" stroke-miterlimit="10" stroke-width="4.159"/>
      <path id="Path_597" data-name="Path 597" d="M9883.581,3180.437l-3.777-1.529a1.278,1.278,0,0,1-.787-1.286q.053-.7.054-1.418t-.054-1.418a1.279,1.279,0,0,1,.787-1.287l3.777-1.529a1.274,1.274,0,0,0,.732-1.574l-1.165-3.587a1.274,1.274,0,0,0-1.519-.842l-3.949.981a1.281,1.281,0,0,1-1.4-.579,18.915,18.915,0,0,0-1.664-2.287,1.281,1.281,0,0,1-.121-1.51l2.155-3.455a1.273,1.273,0,0,0-.332-1.7l-3.052-2.217a1.272,1.272,0,0,0-1.723.211l-2.622,3.119a1.272,1.272,0,0,1-1.462.349,18.632,18.632,0,0,0-2.7-.876,1.282,1.282,0,0,1-.984-1.151l-.287-4.058a1.274,1.274,0,0,0-1.271-1.183h-3.771a1.274,1.274,0,0,0-1.271,1.183l-.287,4.058a1.28,1.28,0,0,1-.984,1.151,18.671,18.671,0,0,0-2.7.876,1.272,1.272,0,0,1-1.462-.349l-2.622-3.119a1.272,1.272,0,0,0-1.723-.211l-3.051,2.217a1.272,1.272,0,0,0-.332,1.7l2.154,3.455a1.281,1.281,0,0,1-.121,1.51,18.915,18.915,0,0,0-1.664,2.287,1.281,1.281,0,0,1-1.4.579l-3.949-.981a1.274,1.274,0,0,0-1.518.842l-1.165,3.587a1.273,1.273,0,0,0,.731,1.574l3.776,1.529a1.278,1.278,0,0,1,.788,1.287q-.053.7-.053,1.418t.053,1.418a1.278,1.278,0,0,1-.787,1.286l-3.777,1.529a1.273,1.273,0,0,0-.731,1.574l1.165,3.587a1.274,1.274,0,0,0,1.518.842l3.949-.981a1.28,1.28,0,0,1,1.4.58,18.982,18.982,0,0,0,1.664,2.286,1.281,1.281,0,0,1,.121,1.51l-2.154,3.455a1.272,1.272,0,0,0,.332,1.7l3.051,2.217a1.272,1.272,0,0,0,1.723-.211l2.622-3.119a1.273,1.273,0,0,1,1.462-.349,18.641,18.641,0,0,0,2.7.876,1.28,1.28,0,0,1,.984,1.151l.287,4.058a1.274,1.274,0,0,0,1.271,1.183h3.771a1.274,1.274,0,0,0,1.271-1.183l.287-4.058a1.282,1.282,0,0,1,.984-1.151,18.6,18.6,0,0,0,2.7-.876,1.273,1.273,0,0,1,1.462.349l2.622,3.119a1.272,1.272,0,0,0,1.723.211l3.052-2.217a1.273,1.273,0,0,0,.332-1.7l-2.155-3.455a1.281,1.281,0,0,1,.121-1.51,18.982,18.982,0,0,0,1.664-2.286,1.28,1.28,0,0,1,1.4-.58l3.949.981a1.274,1.274,0,0,0,1.519-.842l1.165-3.587A1.274,1.274,0,0,0,9883.581,3180.437Zm-23.243,6.6a10.838,10.838,0,1,1,10.838-10.838A10.838,10.838,0,0,1,9860.338,3187.042Z" fill="#fff" stroke="#e9b640" stroke-linecap="round" stroke-linejoin="round" stroke-width="4.159"/>
      <rect id="Rectangle_2222" data-name="Rectangle 2222" width="61.651" height="53.086" rx="6.045" transform="translate(9784.982 3122.118)" fill="#fff" stroke="#4070f4" stroke-miterlimit="10" stroke-width="4.159"/>
      <path id="Path_598" data-name="Path 598" d="M9833.2,3137.635c0,9.55-17.292,17.292-17.292,17.292s-17.291-7.742-17.291-17.292" fill="#fff" stroke="#e9b640" stroke-linecap="round" stroke-linejoin="round" stroke-width="4.159"/>
      <circle id="Ellipse_86" data-name="Ellipse 86" cx="2.947" cy="2.947" r="2.947" transform="translate(9812.962 3156.71)" stroke-width="4.159" stroke="#e9b640" stroke-linecap="round" stroke-linejoin="round" fill="#fff"/>
    </g>
  </g>
</svg>
