<svg xmlns="http://www.w3.org/2000/svg" width="252.529" height="266.147" viewBox="0 0 252.529 266.147">
  <g id="software3_lg" transform="translate(-1135.21 -3082.851)">
    <text id="CAD_Designers" data-name="CAD Designers" transform="translate(1252 3340.998)" fill="#3b325f" font-size="22" font-family="Poppins-Bold, Poppins" font-weight="700"><tspan x="-83.479" y="0">CAD Designers</tspan></text>
    <g id="Group_326" data-name="Group 326" transform="translate(1077.384 3198.334) rotate(-45)">
      <g id="Shape" transform="translate(99.824 0) rotate(40)" opacity="0.11" style="isolation: isolate">
        <path id="Path_15" data-name="Path 15" d="M4.85,76.1c-10.571,22.949-3.289,52.545,16.266,66.105,10.761,7.462,23.584,8.776,34.847,3.571l.03-.019q1.225-.566,2.416-1.23c7.833-3.627,34.024-12.981,70.377,3.218,5.566,2.481,9.847,3.752,13.086,4.091,32.835,12.309,66.767-9.275,75.788-48.208,7.6-32.812-4.893-68.443-30.141-85.944-5.295-3.67-10.717-7.7-16.322-9.4,0,0-72.224-38.947-154.309,52.014A43.5,43.5,0,0,0,4.85,76.1Z" transform="translate(0 0)" fill="#accaf0" stroke="rgba(0,0,0,0)" stroke-width="1"/>
      </g>
      <path id="Shape-2" data-name="Shape" stroke="#accaf0" d="M.452,98.172C-2.781,121.727,11.663,148,32.713,156.866c11.584,4.876,23.349,3.593,31.971-3.487l.022-.024q.937-.77,1.819-1.625c5.995-4.931,26.785-18.82,63.495-10.781,5.621,1.232,9.772,1.582,12.746,1.264,32.532,5.087,56.92-21.768,54.473-59.982-2.063-32.206-22.769-63.111-49.947-74.546-5.7-2.4-11.609-5.111-17.054-5.6,0,0-74.751-22.3-123.325,78.934A38.6,38.6,0,0,0,.452,98.172Z" fill="none" transform="translate(196.917 240.998) rotate(-159)" stroke-miterlimit="10" stroke-width="1" stroke-dasharray="5" opacity="0.97" style="isolation: isolate"/>
      <rect id="Rectangle_2143" data-name="Rectangle 2143" width="10.355" height="10.355" transform="matrix(-0.643, 0.766, -0.766, -0.643, 65.617, 31.516)" fill="none" stroke="#3c58a4" stroke-miterlimit="10" stroke-width="1" opacity="0.31"/>
      <ellipse id="Ellipse_72" data-name="Ellipse 72" cx="5.59" cy="5.599" rx="5.59" ry="5.599" transform="translate(89.656 218.439)" fill="none" stroke="#3c58a4" stroke-miterlimit="10" stroke-width="1" opacity="0.31"/>
    </g>
    <g id="Group_344" data-name="Group 344" transform="translate(-8049.487 30.829)">
      <rect id="Rectangle_2233" data-name="Rectangle 2233" width="102.944" height="76.283" rx="9.363" transform="translate(9256.924 3145.047)" fill="#fff" stroke="#4070f4" stroke-miterlimit="10" stroke-width="4.159"/>
      <rect id="Rectangle_2234" data-name="Rectangle 2234" width="115.816" height="11.916" rx="3.925" transform="translate(9250.487 3221.342)" fill="#fff" stroke="#4070f4" stroke-miterlimit="10" stroke-width="4.159"/>
      <rect id="Rectangle_2235" data-name="Rectangle 2235" width="61.651" height="53.086" rx="6.045" transform="translate(9328.519 3130.171)" fill="#fff" stroke="#4070f4" stroke-miterlimit="10" stroke-width="4.159"/>
      <g id="Group_343" data-name="Group 343">
        <g id="Group_338" data-name="Group 338">
          <line id="Line_132" data-name="Line 132" y2="18.213" transform="translate(9308.862 3166.857)" fill="#fff" stroke="#e9b640" stroke-linecap="round" stroke-linejoin="round" stroke-width="4.1"/>
          <g id="Group_337" data-name="Group 337">
            <path id="Path_608" data-name="Path 608" d="M9304.561,3169.93l4.167-4.167" fill="#fff" stroke="#e9b640" stroke-linecap="round" stroke-linejoin="round" stroke-width="4.1"/>
            <path id="Path_609" data-name="Path 609" d="M9313.164,3169.93l-4.167-4.167" fill="#fff" stroke="#e9b640" stroke-linecap="round" stroke-linejoin="round" stroke-width="4.1"/>
          </g>
        </g>
        <g id="Group_340" data-name="Group 340">
          <line id="Line_133" data-name="Line 133" x1="14.019" y1="11.627" transform="translate(9309.575 3185.636)" fill="#fff" stroke="#e9b640" stroke-linecap="round" stroke-linejoin="round" stroke-width="4.1"/>
          <g id="Group_339" data-name="Group 339">
            <path id="Path_610" data-name="Path 610" d="M9323.975,3191.991l.548,5.867" fill="#fff" stroke="#e9b640" stroke-linecap="round" stroke-linejoin="round" stroke-width="4.1"/>
            <path id="Path_611" data-name="Path 611" d="M9318.483,3198.613l5.866-.547" fill="#fff" stroke="#e9b640" stroke-linecap="round" stroke-linejoin="round" stroke-width="4.1"/>
          </g>
        </g>
        <g id="Group_342" data-name="Group 342">
          <line id="Line_134" data-name="Line 134" y1="11.627" x2="14.019" transform="translate(9293.73 3185.636)" fill="#fff" stroke="#e9b640" stroke-linecap="round" stroke-linejoin="round" stroke-width="4.1"/>
          <g id="Group_341" data-name="Group 341">
            <path id="Path_612" data-name="Path 612" d="M9293.35,3191.991l-.548,5.867" fill="#fff" stroke="#e9b640" stroke-linecap="round" stroke-linejoin="round" stroke-width="4.1"/>
            <path id="Path_613" data-name="Path 613" d="M9298.842,3198.613l-5.868-.547" fill="#fff" stroke="#e9b640" stroke-linecap="round" stroke-linejoin="round" stroke-width="4.1"/>
          </g>
        </g>
      </g>
      <circle id="Ellipse_92" data-name="Ellipse 92" cx="4.955" cy="4.955" r="4.955" transform="translate(9356.041 3148.737)" stroke-width="4.1" stroke="#e9b640" stroke-linecap="round" stroke-linejoin="round" fill="none"/>
      <line id="Line_135" data-name="Line 135" x1="6.176" y1="14.471" transform="translate(9364.981 3159.529)" fill="#fff" stroke="#e9b640" stroke-linecap="round" stroke-linejoin="round" stroke-width="4.1"/>
      <line id="Line_136" data-name="Line 136" y1="14.471" x2="6.176" transform="translate(9350.662 3159.529)" fill="#fff" stroke="#e9b640" stroke-linecap="round" stroke-linejoin="round" stroke-width="4.1"/>
      <line id="Line_137" data-name="Line 137" y1="7.736" transform="translate(9360.996 3141)" fill="none" stroke="#e9b640" stroke-linecap="round" stroke-linejoin="round" stroke-width="4.1"/>
      <line id="Line_138" data-name="Line 138" x2="12.552" transform="translate(9353.751 3166.765)" fill="none" stroke="#e9b640" stroke-linecap="round" stroke-linejoin="round" stroke-width="4.1"/>
    </g>
  </g>
</svg>
