<svg xmlns="http://www.w3.org/2000/svg" width="169" height="233.663" viewBox="0 0 169 233.663">
  <g id="software1_sm" transform="translate(-32 -3211.337)">
    <text id="Jewellery_Software" data-name="Jewellery Software" transform="translate(32 3370)" fill="#3b325f" font-size="22" font-family="Poppins-Bold, Poppins" font-weight="700"><tspan x="30.138" y="23">Jewellery </tspan><tspan x="33.823" y="56">Software</tspan></text>
    <g id="Group_2268" data-name="Group 2268" transform="translate(41 3212.082)">
      <g id="Shape" transform="translate(56.538 0) rotate(40)" opacity="0.11" style="isolation: isolate">
        <path id="Path_15" data-name="Path 15" d="M2.747,43.1C-3.24,56.1.884,72.863,11.96,80.544A19.648,19.648,0,0,0,31.7,82.567l.017-.011q.694-.321,1.369-.7c4.437-2.054,19.27-7.352,39.86,1.822A25.779,25.779,0,0,0,80.354,86c18.6,6.971,37.816-5.253,42.925-27.3,4.306-18.584-2.771-38.765-17.071-48.677-3-2.079-6.07-4.363-9.244-5.323,0,0-40.906-22.059-87.4,29.459A24.638,24.638,0,0,0,2.747,43.1Z" transform="translate(0 0)" fill="#accaf0" stroke="rgba(0,0,0,0)" stroke-width="1"/>
      </g>
      <path id="Shape-2" data-name="Shape" stroke="#accaf0" d="M.256,55.6C-1.575,68.943,6.606,83.827,18.528,88.846c6.561,2.762,13.224,2.035,18.108-1.975l.012-.013q.531-.436,1.03-.92c3.4-2.793,15.171-10.659,35.962-6.106a23.681,23.681,0,0,0,7.219.716c18.425,2.881,32.239-12.329,30.852-33.972-1.168-18.241-12.9-35.745-28.289-42.221C80.2,2.995,76.848,1.459,73.764,1.182c0,0-42.338-12.632-69.849,44.707A21.862,21.862,0,0,0,.256,55.6Z" fill="none" transform="translate(111.53 136.496) rotate(-159)" stroke-miterlimit="10" stroke-width="1" stroke-dasharray="5" opacity="0.97" style="isolation: isolate"/>
      <rect id="Rectangle_2143" data-name="Rectangle 2143" width="5.865" height="5.865" transform="matrix(-0.643, 0.766, -0.766, -0.643, 37.164, 17.85)" fill="none" stroke="#3c58a4" stroke-miterlimit="10" stroke-width="1" opacity="0.31"/>
      <ellipse id="Ellipse_72" data-name="Ellipse 72" cx="3.166" cy="3.171" rx="3.166" ry="3.171" transform="translate(50.779 123.72)" fill="none" stroke="#3c58a4" stroke-miterlimit="10" stroke-width="1" opacity="0.31"/>
    </g>
    <g id="Group_2271" data-name="Group 2271" transform="translate(77.248 3261.938)">
      <rect id="Rectangle_2220" data-name="Rectangle 2220" width="58.305" height="43.205" rx="9.363" transform="translate(13.527 9.031)" fill="#fff" stroke="#4070f4" stroke-miterlimit="10" stroke-width="3"/>
      <rect id="Rectangle_2221" data-name="Rectangle 2221" width="65.596" height="6.749" rx="3.375" transform="translate(9.882 51.637)" fill="#fff" stroke="#4070f4" stroke-miterlimit="10" stroke-width="3"/>
      <path id="Path_597" data-name="Path 597" d="M9863.08,3167.936l-2.141-.866a.723.723,0,0,1-.445-.729c.02-.265.03-.533.03-.8s-.011-.538-.03-.8a.723.723,0,0,1,.445-.729l2.141-.866a.722.722,0,0,0,.414-.891l-.659-2.032a.723.723,0,0,0-.86-.477l-2.237.556a.725.725,0,0,1-.791-.328,10.875,10.875,0,0,0-.942-1.3.726.726,0,0,1-.069-.855l1.221-1.957a.721.721,0,0,0-.187-.965l-1.729-1.255a.72.72,0,0,0-.976.119l-1.485,1.766a.72.72,0,0,1-.828.2,10.609,10.609,0,0,0-1.527-.5.725.725,0,0,1-.558-.652l-.163-2.3a.721.721,0,0,0-.719-.67h-2.137a.72.72,0,0,0-.719.67l-.163,2.3a.725.725,0,0,1-.558.652,10.622,10.622,0,0,0-1.528.5.719.719,0,0,1-.827-.2l-1.485-1.766a.72.72,0,0,0-.976-.119l-1.729,1.255a.72.72,0,0,0-.187.965l1.22,1.957a.724.724,0,0,1-.068.855,10.662,10.662,0,0,0-.942,1.3.726.726,0,0,1-.792.328l-2.236-.556a.722.722,0,0,0-.859.477l-.66,2.032a.721.721,0,0,0,.414.891l2.14.866a.723.723,0,0,1,.445.729q-.029.4-.029.8t.029.8a.723.723,0,0,1-.445.729l-2.14.866a.721.721,0,0,0-.414.891l.66,2.032a.721.721,0,0,0,.859.477l2.236-.555a.725.725,0,0,1,.792.329,10.709,10.709,0,0,0,.942,1.294.725.725,0,0,1,.068.855l-1.22,1.957a.72.72,0,0,0,.188.965l1.729,1.256a.72.72,0,0,0,.976-.12l1.485-1.766a.72.72,0,0,1,.827-.2,10.531,10.531,0,0,0,1.528.5.725.725,0,0,1,.558.652l.163,2.3a.72.72,0,0,0,.719.67h2.137a.721.721,0,0,0,.719-.67l.163-2.3a.725.725,0,0,1,.558-.652,10.518,10.518,0,0,0,1.527-.5.721.721,0,0,1,.828.2l1.485,1.766a.72.72,0,0,0,.976.12l1.729-1.256a.72.72,0,0,0,.188-.965l-1.221-1.957a.727.727,0,0,1,.069-.855,10.924,10.924,0,0,0,.942-1.294.724.724,0,0,1,.791-.329l2.237.555a.722.722,0,0,0,.86-.477l.659-2.032A.722.722,0,0,0,9863.08,3167.936Zm-13.165,3.741a6.138,6.138,0,1,1,6.139-6.138A6.138,6.138,0,0,1,9849.915,3171.677Z" transform="translate(-9807.235 -3134.905)" fill="#fff" stroke="#e9b640" stroke-linecap="round" stroke-linejoin="round" stroke-width="3"/>
      <rect id="Rectangle_2222" data-name="Rectangle 2222" width="34.918" height="30.067" rx="6.045" fill="#fff" stroke="#4070f4" stroke-miterlimit="10" stroke-width="3"/>
      <path id="Path_598" data-name="Path 598" d="M9818.206,3137.635c0,5.409-9.794,9.794-9.794,9.794s-9.794-4.385-9.794-9.794" transform="translate(-9790.896 -3128.846)" fill="#fff" stroke="#e9b640" stroke-linecap="round" stroke-linejoin="round" stroke-width="3"/>
      <ellipse id="Ellipse_86" data-name="Ellipse 86" cx="1.669" cy="1.669" rx="1.669" ry="1.669" transform="translate(15.847 19.592)" fill="#fff" stroke="#e9b640" stroke-linecap="round" stroke-linejoin="round" stroke-width="3"/>
    </g>
  </g>
</svg>
