<svg xmlns="http://www.w3.org/2000/svg" width="269.936" height="276.799" viewBox="0 0 269.936 276.799">
  <g id="training1_lg" transform="translate(-638.093 -2456.198)">
    <text id="Business_Consultant" data-name="Business Consultant" transform="translate(779 2724.997)" fill="#3b325f" font-size="22" font-family="Poppins-Bold, Poppins" font-weight="700"><tspan x="-116.259" y="0">Business Consultant</tspan></text>
    <g id="Group_314" data-name="Group 314" transform="translate(639 2456.973)">
      <g id="Shape" transform="translate(99.824 0) rotate(40)" opacity="0.11" style="isolation: isolate">
        <path id="Path_15" data-name="Path 15" d="M4.85,76.1c-10.571,22.949-3.289,52.545,16.266,66.105,10.761,7.462,23.584,8.776,34.847,3.571l.03-.019q1.225-.566,2.416-1.23c7.833-3.627,34.024-12.981,70.377,3.218,5.566,2.481,9.847,3.752,13.086,4.091,32.835,12.309,66.767-9.275,75.788-48.208,7.6-32.812-4.893-68.443-30.141-85.944-5.295-3.67-10.717-7.7-16.322-9.4,0,0-72.224-38.947-154.309,52.014A43.5,43.5,0,0,0,4.85,76.1Z" transform="translate(0 0)" fill="#accaf0" stroke="rgba(0,0,0,0)" stroke-width="1"/>
      </g>
      <path id="Shape-2" data-name="Shape" stroke="#accaf0" d="M.452,98.172C-2.781,121.727,11.663,148,32.713,156.866c11.584,4.876,23.349,3.593,31.971-3.487l.022-.024q.937-.77,1.819-1.625C72.52,146.8,93.31,132.91,130.02,140.95c5.621,1.232,9.772,1.582,12.746,1.264,32.532,5.087,56.92-21.768,54.473-59.982-2.063-32.206-22.769-63.111-49.947-74.546-5.7-2.4-11.609-5.111-17.054-5.6,0,0-74.751-22.3-123.325,78.934A38.6,38.6,0,0,0,.452,98.172Z" fill="none" transform="translate(196.917 240.998) rotate(-159)" stroke-miterlimit="10" stroke-width="1" stroke-dasharray="5" opacity="0.97" style="isolation: isolate"/>
      <rect id="Rectangle_2143" data-name="Rectangle 2143" width="10.355" height="10.355" transform="matrix(-0.643, 0.766, -0.766, -0.643, 65.617, 31.516)" fill="none" stroke="#3c58a4" stroke-miterlimit="10" stroke-width="1" opacity="0.31"/>
      <ellipse id="Ellipse_72" data-name="Ellipse 72" cx="5.59" cy="5.599" rx="5.59" ry="5.599" transform="translate(89.656 218.439)" fill="none" stroke="#3c58a4" stroke-miterlimit="10" stroke-width="1" opacity="0.31"/>
    </g>
    <g id="Group_323" data-name="Group 323" transform="translate(-9305.303 -596.274)">
      <path id="Path_594" data-name="Path 594" d="M10069.1,3142.4h51.979a6.241,6.241,0,0,1,6.24,6.243V3190.3a6.242,6.242,0,0,1-6.24,6.242h-35.935V3206.6l-10.059-10.058h-5.985a6.243,6.243,0,0,1-6.243-6.242v-41.664A6.242,6.242,0,0,1,10069.1,3142.4Z" transform="translate(14.435)" fill="#fff" stroke="#4070f4" stroke-miterlimit="10" stroke-width="4.159"/>
      <line id="Line_122" data-name="Line 122" x1="35.445" transform="translate(10091.038 3159.201)" fill="none" stroke="#e9b640" stroke-linecap="round" stroke-linejoin="round" stroke-width="4.159"/>
      <line id="Line_123" data-name="Line 123" x1="22.804" transform="translate(10091.038 3169.363)" fill="none" stroke="#e9b640" stroke-linecap="round" stroke-linejoin="round" stroke-width="4.159"/>
      <line id="Line_124" data-name="Line 124" x1="27.017" transform="translate(10091.038 3179.526)" fill="none" stroke="#e9b640" stroke-linecap="round" stroke-linejoin="round" stroke-width="4.159"/>
      <g id="Group_322" data-name="Group 322" transform="translate(10014.303 3162.949)">
        <path id="Path_536" data-name="Path 536" d="M10080.468,3218.9v-10.865a16.542,16.542,0,0,0-16.542-16.542h-33.082a16.542,16.542,0,0,0-16.541,16.542V3218.9" transform="translate(-10014.303 -3148.354)" fill="none" stroke="#4070f4" stroke-miterlimit="10" stroke-width="4.159"/>
        <path id="Path_537" data-name="Path 537" d="M10060.135,3174.78a16.542,16.542,0,1,1-16.54-16.541A16.541,16.541,0,0,1,10060.135,3174.78Z" transform="translate(-10010.512 -3158.239)" fill="#fff" stroke="#4070f4" stroke-miterlimit="10" stroke-width="4.159"/>
      </g>
      <path id="Path_595" data-name="Path 595" d="M10046.295,3193.236l-5.506,5.5-5.5-5.5Z" transform="translate(6.239 15.114)" fill="none" stroke="#4070f4" stroke-linejoin="round" stroke-width="4.159"/>
      <path id="Path_596" data-name="Path 596" d="M10035.286,3215.2l5.5-15.883,5.506,15.883Z" transform="translate(6.239 16.921)" fill="none" stroke="#4070f4" stroke-linejoin="round" stroke-width="4.159"/>
      <line id="Line_125" data-name="Line 125" x2="10.836" transform="translate(10023.221 3221.552)" fill="none" stroke="#4070f4" stroke-linecap="round" stroke-miterlimit="10" stroke-width="4.159"/>
    </g>
  </g>
</svg>
