<svg xmlns="http://www.w3.org/2000/svg" width="252.529" height="266.147" viewBox="0 0 252.529 266.147">
  <g id="training2_lg" transform="translate(-964.21 -2466.849)">
    <text id="Staff_Training" data-name="Staff Training" transform="translate(1113 2724.997)" fill="#3b325f" font-size="22" font-family="Poppins-Bold, Poppins" font-weight="700"><tspan x="-76.417" y="0">Staff Training</tspan></text>
    <g id="Group_313" data-name="Group 313" transform="translate(906.384 2582.333) rotate(-45)">
      <g id="Shape" transform="translate(99.824 0) rotate(40)" opacity="0.11" style="isolation: isolate">
        <path id="Path_15" data-name="Path 15" d="M4.85,76.1c-10.571,22.949-3.289,52.545,16.266,66.105,10.761,7.462,23.584,8.776,34.847,3.571l.03-.019q1.225-.566,2.416-1.23c7.833-3.627,34.024-12.981,70.377,3.218,5.566,2.481,9.847,3.752,13.086,4.091,32.835,12.309,66.767-9.275,75.788-48.208,7.6-32.812-4.893-68.443-30.141-85.944-5.295-3.67-10.717-7.7-16.322-9.4,0,0-72.224-38.947-154.309,52.014A43.5,43.5,0,0,0,4.85,76.1Z" transform="translate(0 0)" fill="#accaf0" stroke="rgba(0,0,0,0)" stroke-width="1"/>
      </g>
      <path id="Shape-2" data-name="Shape" stroke="#accaf0" d="M.452,98.172C-2.781,121.727,11.663,148,32.713,156.866c11.584,4.876,23.349,3.593,31.971-3.487l.022-.024q.937-.77,1.819-1.625c5.995-4.931,26.785-18.82,63.495-10.781,5.621,1.232,9.772,1.582,12.746,1.264,32.532,5.087,56.92-21.768,54.473-59.982-2.063-32.206-22.769-63.111-49.947-74.546-5.7-2.4-11.609-5.111-17.054-5.6,0,0-74.751-22.3-123.325,78.934A38.6,38.6,0,0,0,.452,98.172Z" fill="none" transform="translate(196.917 240.998) rotate(-159)" stroke-miterlimit="10" stroke-width="1" stroke-dasharray="5" opacity="0.97" style="isolation: isolate"/>
      <rect id="Rectangle_2143" data-name="Rectangle 2143" width="10.355" height="10.355" transform="matrix(-0.643, 0.766, -0.766, -0.643, 65.617, 31.516)" fill="none" stroke="#3c58a4" stroke-miterlimit="10" stroke-width="1" opacity="0.31"/>
      <ellipse id="Ellipse_72" data-name="Ellipse 72" cx="5.59" cy="5.599" rx="5.59" ry="5.599" transform="translate(89.656 218.439)" fill="none" stroke="#3c58a4" stroke-miterlimit="10" stroke-width="1" opacity="0.31"/>
    </g>
    <g id="traning_staff_lg" transform="translate(-9129.866 -597.825)">
      <rect id="Rectangle_2219" data-name="Rectangle 2219" width="64.237" height="48.187" rx="5.111" transform="translate(10230.505 3139.821)" fill="#fff" stroke="#4070f4" stroke-miterlimit="10" stroke-width="4.159"/>
      <g id="Group_317" data-name="Group 317" transform="translate(10161.866 3200.863)">
        <path id="Path_536" data-name="Path 536" d="M10197.354,3227.521v-4.435a8.872,8.872,0,0,0-8.872-8.872h-17.743a8.871,8.871,0,0,0-8.872,8.872v4.435" transform="translate(-10161.867 -3189.685)" fill="none" stroke="#4070f4" stroke-miterlimit="10" stroke-width="4.159"/>
        <path id="Path_537" data-name="Path 537" d="M10187.323,3201.761a8.872,8.872,0,1,1-8.872-8.872A8.871,8.871,0,0,1,10187.323,3201.761Z" transform="translate(-10160.708 -3192.889)" fill="#fff" stroke="#4070f4" stroke-miterlimit="10" stroke-width="4.159"/>
      </g>
      <g id="Group_318" data-name="Group 318" transform="translate(10216.326 3200.863)">
        <path id="Path_536-2" data-name="Path 536" d="M10244.7,3227.521v-4.435a8.872,8.872,0,0,0-8.873-8.872h-17.744a8.873,8.873,0,0,0-8.873,8.872v4.435" transform="translate(-10209.212 -3189.685)" fill="none" stroke="#4070f4" stroke-miterlimit="10" stroke-width="4.159"/>
        <path id="Path_537-2" data-name="Path 537" d="M10234.67,3201.761a8.872,8.872,0,1,1-8.872-8.872A8.871,8.871,0,0,1,10234.67,3201.761Z" transform="translate(-10208.053 -3192.889)" fill="#fff" stroke="#4070f4" stroke-miterlimit="10" stroke-width="4.159"/>
      </g>
      <g id="Group_319" data-name="Group 319" transform="translate(10270.786 3200.863)">
        <path id="Path_536-3" data-name="Path 536" d="M10292.048,3227.521v-4.435a8.872,8.872,0,0,0-8.871-8.872h-17.745a8.872,8.872,0,0,0-8.873,8.872v4.435" transform="translate(-10256.559 -3189.685)" fill="none" stroke="#4070f4" stroke-miterlimit="10" stroke-width="4.159"/>
        <path id="Path_537-3" data-name="Path 537" d="M10282.018,3201.761a8.873,8.873,0,1,1-8.873-8.872A8.873,8.873,0,0,1,10282.018,3201.761Z" transform="translate(-10255.399 -3192.889)" fill="#fff" stroke="#4070f4" stroke-miterlimit="10" stroke-width="4.159"/>
      </g>
      <g id="Group_320" data-name="Group 320" transform="translate(10173.038 3141.802)">
        <path id="Path_536-4" data-name="Path 536" d="M10212.91,3182.09V3175.3a10.333,10.333,0,0,0-10.332-10.333h-20.667a10.333,10.333,0,0,0-10.332,10.333v6.788" transform="translate(-10171.579 -3138.023)" fill="none" stroke="#4070f4" stroke-miterlimit="10" stroke-width="4.159"/>
        <path id="Path_537-4" data-name="Path 537" d="M10201.229,3151.876a10.333,10.333,0,1,1-10.334-10.333A10.334,10.334,0,0,1,10201.229,3151.876Z" transform="translate(-10170.229 -3141.543)" fill="#fff" stroke="#4070f4" stroke-miterlimit="10" stroke-width="4.159"/>
      </g>
      <path id="Path_591" data-name="Path 591" d="M10193.24,3166.2l-3.438,3.438-3.438-3.438Z" transform="translate(3.68 3.963)" fill="none" stroke="#4070f4" stroke-linejoin="round" stroke-width="4.159"/>
      <path id="Path_592" data-name="Path 592" d="M10186.363,3180.4l3.438-9.921,3.438,9.921Z" transform="translate(3.68 4.606)" fill="none" stroke="#4070f4" stroke-linejoin="round" stroke-width="4.159"/>
      <line id="Line_121" data-name="Line 121" x2="3.023" transform="translate(10181.106 3178.409)" fill="none" stroke="#4070f4" stroke-linecap="round" stroke-miterlimit="10" stroke-width="4.159"/>
      <path id="Path_593" data-name="Path 593" d="M10231.692,3175.648l19.355-19.355,9.147,9.147,12.718-12.719" transform="translate(10.492 1.938)" fill="none" stroke="#e9b640" stroke-linecap="round" stroke-linejoin="round" stroke-width="4.159"/>
    </g>
  </g>
</svg>
