<svg xmlns="http://www.w3.org/2000/svg" width="137.462" height="248.487" viewBox="0 0 137.462 248.487">
  <g id="training2_sm" transform="translate(-228.068 -2732.513)">
    <text id="Staff_Training" data-name="Staff Training" transform="translate(241 2896)" fill="#3b325f" font-size="22" font-family="Poppins-Bold, Poppins" font-weight="700"><tspan x="30.88" y="23">Staff </tspan><tspan x="10.035" y="56">Training</tspan></text>
    <g id="Group_2262" data-name="Group 2262" transform="translate(196.965 2795.541) rotate(-45)">
      <g id="Shape" transform="translate(54.12 0) rotate(40)" opacity="0.11" style="isolation: isolate">
        <path id="Path_15" data-name="Path 15" d="M2.63,41.26C-3.1,53.7.847,69.748,11.448,77.1a18.808,18.808,0,0,0,18.893,1.936l.016-.01q.664-.307,1.31-.667c4.247-1.967,18.446-7.038,38.156,1.745a24.677,24.677,0,0,0,7.095,2.218c17.8,6.673,36.2-5.028,41.089-26.136,4.122-17.79-2.653-37.107-16.341-46.6-2.871-1.99-5.81-4.176-8.849-5.1,0,0-39.157-21.116-83.66,28.2A23.585,23.585,0,0,0,2.63,41.26Z" transform="translate(0 0)" fill="#accaf0" stroke="rgba(0,0,0,0)" stroke-width="1"/>
      </g>
      <path id="Shape-2" data-name="Shape" stroke="#accaf0" d="M.245,53.225C-1.508,66,6.323,80.242,17.736,85.047c6.28,2.644,12.659,1.948,17.334-1.89l.012-.013q.508-.417.986-.881c3.25-2.673,14.522-10.2,34.424-5.845a22.668,22.668,0,0,0,6.91.685c17.638,2.758,30.86-11.8,29.533-32.52C105.817,27.122,94.59,10.367,79.856,4.167c-3.09-1.3-6.294-2.771-9.246-3.036,0,0-40.527-12.092-66.862,42.795A20.927,20.927,0,0,0,.245,53.225Z" fill="none" transform="translate(106.761 130.66) rotate(-159)" stroke-miterlimit="10" stroke-width="1" stroke-dasharray="5" opacity="0.97" style="isolation: isolate"/>
      <rect id="Rectangle_2143" data-name="Rectangle 2143" width="5.614" height="5.614" transform="matrix(-0.643, 0.766, -0.766, -0.643, 35.575, 17.087)" fill="none" stroke="#3c58a4" stroke-miterlimit="10" stroke-width="1" opacity="0.31"/>
      <ellipse id="Ellipse_72" data-name="Ellipse 72" cx="3.031" cy="3.035" rx="3.031" ry="3.035" transform="translate(48.608 118.429)" fill="none" stroke="#3c58a4" stroke-miterlimit="10" stroke-width="1" opacity="0.31"/>
    </g>
    <g id="Group_2264" data-name="Group 2264" transform="translate(265.069 2773.672)">
      <rect id="Rectangle_2219" data-name="Rectangle 2219" width="34.827" height="26.125" rx="5.111" transform="translate(37.213 0)" fill="#fff" stroke="#4070f4" stroke-miterlimit="10" stroke-width="3"/>
      <g id="Group_317" data-name="Group 317" transform="translate(0 33.094)">
        <path id="Path_536" data-name="Path 536" d="M10181.106,3221.429v-2.4a4.809,4.809,0,0,0-4.81-4.81h-9.62a4.809,4.809,0,0,0-4.81,4.81v2.4" transform="translate(-10161.867 -3200.916)" fill="none" stroke="#4070f4" stroke-miterlimit="10" stroke-width="3"/>
        <path id="Path_537" data-name="Path 537" d="M10179.2,3197.7a4.81,4.81,0,1,1-4.811-4.81A4.809,4.809,0,0,1,10179.2,3197.7Z" transform="translate(-10164.771 -3192.889)" fill="#fff" stroke="#4070f4" stroke-miterlimit="10" stroke-width="3"/>
      </g>
      <g id="Group_318" data-name="Group 318" transform="translate(29.526 33.094)">
        <path id="Path_536-2" data-name="Path 536" d="M10228.453,3221.429v-2.4a4.81,4.81,0,0,0-4.811-4.81h-9.619a4.812,4.812,0,0,0-4.812,4.81v2.4" transform="translate(-10209.211 -3200.916)" fill="none" stroke="#4070f4" stroke-miterlimit="10" stroke-width="3"/>
        <path id="Path_537-2" data-name="Path 537" d="M10226.546,3197.7a4.81,4.81,0,1,1-4.811-4.81A4.809,4.809,0,0,1,10226.546,3197.7Z" transform="translate(-10212.115 -3192.889)" fill="#fff" stroke="#4070f4" stroke-miterlimit="10" stroke-width="3"/>
      </g>
      <g id="Group_319" data-name="Group 319" transform="translate(59.052 33.094)">
        <path id="Path_536-3" data-name="Path 536" d="M10275.8,3221.429v-2.4a4.809,4.809,0,0,0-4.809-4.81h-9.621a4.809,4.809,0,0,0-4.811,4.81v2.4" transform="translate(-10256.559 -3200.916)" fill="none" stroke="#4070f4" stroke-miterlimit="10" stroke-width="3"/>
        <path id="Path_537-3" data-name="Path 537" d="M10273.893,3197.7a4.811,4.811,0,1,1-4.811-4.81A4.809,4.809,0,0,1,10273.893,3197.7Z" transform="translate(-10259.461 -3192.889)" fill="#fff" stroke="#4070f4" stroke-miterlimit="10" stroke-width="3"/>
      </g>
      <g id="Group_320" data-name="Group 320" transform="translate(6.057 1.074)">
        <path id="Path_536-4" data-name="Path 536" d="M10193.987,3174.251v-3.68a5.6,5.6,0,0,0-5.6-5.6h-11.2a5.6,5.6,0,0,0-5.6,5.6v3.68" transform="translate(-10171.579 -3150.36)" fill="none" stroke="#4070f4" stroke-miterlimit="10" stroke-width="3"/>
        <path id="Path_537-4" data-name="Path 537" d="M10191.767,3147.145a5.6,5.6,0,1,1-5.6-5.6A5.6,5.6,0,0,1,10191.767,3147.145Z" transform="translate(-10174.96 -3141.544)" fill="#fff" stroke="#4070f4" stroke-miterlimit="10" stroke-width="3"/>
      </g>
      <path id="Path_591" data-name="Path 591" d="M10190.092,3166.2l-1.864,1.864-1.864-1.864Z" transform="translate(-10171.087 -3149.75)" fill="none" stroke="#4070f4" stroke-linejoin="round" stroke-width="3"/>
      <path id="Path_592" data-name="Path 592" d="M10186.363,3175.859l1.864-5.379,1.864,5.379Z" transform="translate(-10171.087 -3151.361)" fill="none" stroke="#4070f4" stroke-linejoin="round" stroke-width="3"/>
      <line id="Line_121" data-name="Line 121" x2="1.639" transform="translate(10.431 20.921)" fill="none" stroke="#4070f4" stroke-linecap="round" stroke-miterlimit="10" stroke-width="3"/>
      <path id="Path_593" data-name="Path 593" d="M10231.692,3165.151l10.494-10.493,4.959,4.959,6.9-6.9" transform="translate(-10188.146 -3144.677)" fill="none" stroke="#e9b640" stroke-linecap="round" stroke-linejoin="round" stroke-width="3"/>
    </g>
  </g>
</svg>
