<svg xmlns="http://www.w3.org/2000/svg" width="161.884" height="247.656" viewBox="0 0 161.884 247.656">
  <g id="marketing1" transform="translate(-35.673 -1974.344)">
    <text id="Product_Photoshoot" data-name="Product Photoshoot" transform="translate(45.5 2146)" fill="#3b325f" font-size="22" font-family="Poppins-Bold, Poppins" font-weight="700"><tspan x="26.417" y="23">Product </tspan><tspan x="6.21" y="56">Photoshoot</tspan></text>
    <g id="Group_304" data-name="Group 304" transform="translate(36.5 1975.091)">
      <g id="Shape" transform="translate(59.655 0) rotate(40)" opacity="0.11" style="isolation: isolate">
        <path id="Path_15" data-name="Path 15" d="M2.9,45.48c-6.317,13.714-1.966,31.4,9.721,39.5a20.732,20.732,0,0,0,20.825,2.134l.018-.011q.732-.338,1.444-.735C39.587,84.2,55.239,78.615,76.964,88.3a27.2,27.2,0,0,0,7.82,2.445c19.623,7.356,39.9-5.543,45.291-28.809,4.544-19.609-2.924-40.9-18.013-51.361-3.164-2.193-6.4-4.6-9.754-5.617,0,0-43.162-23.275-92.216,31.084A26,26,0,0,0,2.9,45.48Z" transform="translate(0 0)" fill="#accaf0" stroke="rgba(0,0,0,0)" stroke-width="1"/>
      </g>
      <path id="Shape-2" data-name="Shape" stroke="#accaf0" d="M.27,58.668c-1.932,14.076,6.7,29.78,19.279,35.076,6.923,2.914,13.953,2.147,19.106-2.084l.013-.014q.56-.46,1.087-.971c3.583-2.947,16.007-11.247,37.945-6.443a24.987,24.987,0,0,0,7.617.756c19.441,3.04,34.016-13.009,32.553-35.846C116.639,29.9,104.264,11.427,88.023,4.593,84.617,3.16,81.085,1.539,77.831,1.247c0,0-44.672-13.329-73.7,47.172A23.068,23.068,0,0,0,.27,58.668Z" fill="none" transform="translate(117.679 144.022) rotate(-159)" stroke-miterlimit="10" stroke-width="1" stroke-dasharray="5" opacity="0.97" style="isolation: isolate"/>
      <rect id="Rectangle_2143" data-name="Rectangle 2143" width="6.188" height="6.188" transform="matrix(-0.643, 0.766, -0.766, -0.643, 39.213, 18.834)" fill="none" stroke="#3c58a4" stroke-miterlimit="10" stroke-width="1" opacity="0.31"/>
      <ellipse id="Ellipse_72" data-name="Ellipse 72" cx="3.341" cy="3.346" rx="3.341" ry="3.346" transform="translate(53.579 130.541)" fill="none" stroke="#3c58a4" stroke-miterlimit="10" stroke-width="1" opacity="0.31"/>
    </g>
    <g id="Group_305" data-name="Group 305" transform="translate(78.5 2030.085)">
      <rect id="Rectangle_2213" data-name="Rectangle 2213" width="55.078" height="44.142" rx="8.718" transform="translate(0 15.359)" fill="#fff" stroke="#4070f4" stroke-miterlimit="10" stroke-width="3"/>
      <rect id="Rectangle_2214" data-name="Rectangle 2214" width="36.57" height="30.718" rx="5.926" transform="translate(39.598 0)" fill="#fff" stroke="#4070f4" stroke-miterlimit="10" stroke-width="3"/>
      <ellipse id="Ellipse_84" data-name="Ellipse 84" cx="12.12" cy="12.12" rx="12.12" ry="12.12" transform="translate(15.419 25.31)" fill="#fff" stroke="#4070f4" stroke-miterlimit="10" stroke-width="3"/>
      <path id="Path_579" data-name="Path 579" d="M9694.948,2860.747a7.073,7.073,0,0,1,4.879-3.188" transform="translate(-9672.855 -2827.378)" fill="none" stroke="#4070f4" stroke-miterlimit="10" stroke-width="3"/>
      <rect id="Rectangle_2215" data-name="Rectangle 2215" width="13.643" height="4.983" rx="2.491" transform="translate(6.483 9.938)" fill="#fff" stroke="#4070f4" stroke-miterlimit="10" stroke-width="3"/>
      <path id="Path_580" data-name="Path 580" d="M9759,2821.244c0,5.526-10.007,10.006-10.007,10.006s-10.006-4.48-10.006-10.006" transform="translate(-9690.578 -2812.765)" fill="#fff" stroke="#e9b640" stroke-linecap="round" stroke-linejoin="round" stroke-width="3"/>
      <ellipse id="Ellipse_85" data-name="Ellipse 85" cx="1.705" cy="1.705" rx="1.705" ry="1.705" transform="translate(56.714 19.517)" fill="#fff" stroke="#e9b640" stroke-linecap="round" stroke-linejoin="round" stroke-width="3"/>
    </g>
  </g>
</svg>
