<svg xmlns="http://www.w3.org/2000/svg" width="151.397" height="227.399" viewBox="0 0 151.397 227.399">
  <g id="marketing2" transform="translate(-228.339 -1990.601)">
    <text id="Digital_Marketing" data-name="Digital Marketing" transform="translate(245 2146)" fill="#3b325f" font-size="22" font-family="Poppins-Bold, Poppins" font-weight="700"><tspan x="22.864" y="23">Digital </tspan><tspan x="1.557" y="56">Marketing</tspan></text>
    <g id="Group_303" data-name="Group 303" transform="translate(194 2060.007) rotate(-45)">
      <g id="Shape" transform="translate(59.655 0) rotate(40)" opacity="0.11" style="isolation: isolate">
        <path id="Path_15" data-name="Path 15" d="M2.9,45.48c-6.317,13.714-1.966,31.4,9.721,39.5a20.732,20.732,0,0,0,20.825,2.134l.018-.011q.732-.338,1.444-.735C39.587,84.2,55.239,78.615,76.964,88.3a27.2,27.2,0,0,0,7.82,2.445c19.623,7.356,39.9-5.543,45.291-28.809,4.544-19.609-2.924-40.9-18.013-51.361-3.164-2.193-6.4-4.6-9.754-5.617,0,0-43.162-23.275-92.216,31.084A26,26,0,0,0,2.9,45.48Z" transform="translate(0 0)" fill="#accaf0" stroke="rgba(0,0,0,0)" stroke-width="1"/>
      </g>
      <path id="Shape-2" data-name="Shape" stroke="#accaf0" d="M.27,58.668c-1.932,14.076,6.7,29.78,19.279,35.076,6.923,2.914,13.953,2.147,19.106-2.084l.013-.014q.56-.46,1.087-.971c3.583-2.947,16.007-11.247,37.945-6.443a24.987,24.987,0,0,0,7.617.756c19.441,3.04,34.016-13.009,32.553-35.846C116.639,29.9,104.264,11.427,88.023,4.593,84.617,3.16,81.085,1.539,77.831,1.247c0,0-44.672-13.329-73.7,47.172A23.068,23.068,0,0,0,.27,58.668Z" fill="none" transform="translate(117.679 144.022) rotate(-159)" stroke-miterlimit="10" stroke-width="1" stroke-dasharray="5" opacity="0.97" style="isolation: isolate"/>
      <rect id="Rectangle_2143" data-name="Rectangle 2143" width="6.188" height="6.188" transform="matrix(-0.643, 0.766, -0.766, -0.643, 39.213, 18.834)" fill="none" stroke="#3c58a4" stroke-miterlimit="10" stroke-width="1" opacity="0.31"/>
      <ellipse id="Ellipse_72" data-name="Ellipse 72" cx="3.341" cy="3.346" rx="3.341" ry="3.346" transform="translate(53.579 130.541)" fill="none" stroke="#3c58a4" stroke-miterlimit="10" stroke-width="1" opacity="0.31"/>
    </g>
    <g id="Group_306" data-name="Group 306" transform="translate(263 2039.487)">
      <rect id="Rectangle_2216" data-name="Rectangle 2216" width="52.367" height="39.283" rx="7.117" transform="translate(5.348 14.261)" fill="#fff" stroke="#4070f4" stroke-miterlimit="10" stroke-width="3"/>
      <rect id="Rectangle_2217" data-name="Rectangle 2217" width="63.063" height="7.296" rx="3.366" transform="translate(0 53.544)" fill="#fff" stroke="#4070f4" stroke-miterlimit="10" stroke-width="3"/>
      <path id="Path_581" data-name="Path 581" d="M9713.06,2978.344h-33.222a3.99,3.99,0,0,0-3.991,3.99v26.631a3.99,3.99,0,0,0,3.991,3.99H9702.8v6.428l6.429-6.428h3.826a3.991,3.991,0,0,0,3.991-3.99v-26.631A3.991,3.991,0,0,0,9713.06,2978.344Z" transform="translate(-9633.387 -2978.344)" fill="#fff" stroke="#e9b640" stroke-linecap="round" stroke-miterlimit="10" stroke-width="3"/>
      <line id="Line_100" data-name="Line 100" x2="22.656" transform="translate(50.566 11.571)" fill="#fff" stroke="#4070f4" stroke-linecap="round" stroke-miterlimit="10" stroke-width="3"/>
      <line id="Line_101" data-name="Line 101" x2="14.576" transform="translate(50.566 18.067)" fill="#fff" stroke="#4070f4" stroke-linecap="round" stroke-miterlimit="10" stroke-width="3"/>
      <line id="Line_102" data-name="Line 102" x2="17.269" transform="translate(50.566 24.563)" fill="#fff" stroke="#4070f4" stroke-linecap="round" stroke-miterlimit="10" stroke-width="3"/>
      <path id="Path_582" data-name="Path 582" d="M9653.178,3020.118l8.635,6.872-8.635,6.316Z" transform="translate(-9625.98 -2991.99)" fill="#fff" stroke="#e9b640" stroke-linecap="round" stroke-miterlimit="10" stroke-width="3"/>
    </g>
  </g>
</svg>
