<svg xmlns="http://www.w3.org/2000/svg" width="717.806" height="549.6" viewBox="0 0 717.806 549.6">
  <g id="Group_2299" data-name="Group 2299" transform="translate(9.215 56.029)">
    <g id="Shape" transform="matrix(0.996, -0.087, 0.087, 0.996, -8.124, 3.931)" opacity="0.08" style="isolation: isolate">
      <path id="Path_15" data-name="Path 15" d="M13.283,229.849c-30.81,71.335-6.2,164.893,54.972,208.971,33.662,24.256,73.208,29.342,107.469,13.824l.092-.057q3.724-1.687,7.341-3.685c23.828-10.816,103.7-38.259,216.749,15.364,17.308,8.214,30.572,12.527,40.563,13.833C542.4,519.232,645.177,453.93,670.022,332.244c20.941-102.556-20.16-215.469-99.139-272.358-16.561-11.93-33.543-25.008-50.913-30.757,0,0-225.1-127.793-470.835,151.956C34.039,193.42,21.771,210.106,13.283,229.849Z" transform="translate(0 0)" fill="#accaf0" stroke="rgba(0,0,0,0)" stroke-width="2"/>
    </g>
  </g>
</svg>
